<?xml version="1.0" encoding="UTF-8" standalone="no"?>
<svg
   xmlns="http://www.w3.org/2000/svg"
   viewBox="0 0 146.31458 73.554657"
   height="73.554657mm"
   width="146.31458mm">
  <g
     transform="translate(-0.28404655,-0.66636898)"
  >
    <path
         d="m 0.28404655,69.722619 v -4.49792 l 13.95677145,0.009 13.956771,0.009 3.664389,1.28176 3.664389,1.28176 0.744022,-1.1732 0.744022,-1.1732 40.035672,0.0223 c 22.01963,0.0122 40.106727,0.10829 40.193557,0.2134 0.0868,0.10512 0.5483,1.61987 1.0255,3.36612 0.92543,3.38655 1.07174,3.67674 2.20114,4.36548 0.69028,0.42096 0.18536,0.4521 -10.03138,0.61858 -5.91704,0.0965 -33.122487,0.17533 -60.456546,0.17533 H 0.28404655 Z m 85.98957645,3.30729 c 0,-0.79125 0.089,-0.92604 0.61157,-0.92604 1.38832,0 2.39086,-1.96194 1.71899,-3.36402 -0.32236,-0.67271 -0.48563,-0.73984 -1.87103,-0.76931 l -1.51786,-0.0323 v 3.00884 c 0,2.83246 0.031,3.00885 0.52917,3.00885 0.42837,0 0.52916,-0.17639 0.52916,-0.92604 z m 0.0517,-2.97418 c 0.0631,-0.98078 0.18915,-1.27502 0.57811,-1.34895 0.92885,-0.17656 1.32145,1.40809 0.54197,2.18756 -0.815,0.81501 -1.20749,0.52114 -1.12008,-0.83861 z m -61.021091,2.27983 c 0.379214,-0.73332 0.382847,-0.87127 0.03218,-1.22193 -0.531892,-0.53189 -1.056579,-0.16363 -0.863412,0.60601 0.08509,0.33901 0.0352,0.69024 -0.110852,0.7805 -0.398002,0.24598 -0.319741,0.66206 0.124526,0.66206 0.214545,0 0.582443,-0.37199 0.817554,-0.82664 z M 3.7236805,71.574699 c 0,-0.38806 -0.176389,-0.52917 -0.661459,-0.52917 -0.637713,0 -0.661458,-0.0617 -0.661458,-1.71979 0,-1.5434 -0.05427,-1.71979 -0.529167,-1.71979 -0.487663,0 -0.529166,0.17639 -0.529166,2.24896 v 2.24896 h 1.190625 c 1.014236,0 1.190625,-0.0784 1.190625,-0.52917 z m 3.800777,-0.0192 c 0.563921,-0.44357 0.697139,-0.77024 0.697139,-1.70948 0,-2.90874 -3.763785,-3.08527 -4.151491,-0.1947 -0.124236,0.92625 -0.04404,1.1915 0.53545,1.77099 0.835935,0.83593 1.960292,0.88724 2.918902,0.1332 z m -2.317261,-0.92848 c -0.466089,-1.2146 0.230278,-2.35929 1.21391,-1.99543 1.283795,0.47491 1.059409,2.41395 -0.279343,2.41395 -0.461682,0 -0.838768,-0.16887 -0.934567,-0.41852 z m 4.8664845,-0.7915 c 0,-2.01759 -0.05119,-2.2586 -0.4630215,-2.18008 -0.377994,0.0721 -0.477555,0.42307 -0.542165,1.91138 -0.08967,2.06547 0.02186,2.53706 0.600007,2.53706 0.3323435,0 0.4051795,-0.40777 0.4051795,-2.26836 z m 3.439583,1.73919 c 0.291042,-0.29104 0.529167,-0.69926 0.529167,-0.90714 0,-0.47774 -0.638159,-1.12448 -1.324483,-1.34231 -0.828757,-0.26304 -0.66948,-0.98012 0.195095,-0.87834 0.520044,0.0612 0.74806,-0.0448 0.81315,-0.37794 0.07229,-0.37004 -0.0956,-0.46302 -0.836089,-0.46302 -1.086952,0 -1.75809,0.56788 -1.75809,1.48761 0,0.49969 0.220714,0.74828 0.926042,1.04299 1.390806,0.58111 1.22383,1.04526 -0.330729,0.91934 -0.441298,-0.0358 -0.595313,0.0936 -0.595313,0.49987 0,0.45002 0.165725,0.54811 0.926042,0.54811 0.573264,0 1.127627,-0.20159 1.455208,-0.52917 z m 2.38125,-1.73919 c 0,-2.01759 -0.05119,-2.2586 -0.463021,-2.18008 -0.377994,0.0721 -0.477554,0.42307 -0.542165,1.91138 -0.08967,2.06547 0.02185,2.53706 0.600008,2.53706 0.332341,0 0.405178,-0.40777 0.405178,-2.26836 z m 2.190239,1.33195 -0.05872,-0.78338 0.673206,0.85989 c 0.370263,0.47294 0.902703,0.8599 1.183198,0.8599 0.654529,0 0.647853,-0.32239 -0.01918,-0.92604 -0.631029,-0.57108 -0.670777,-1.00831 -0.132292,-1.45521 0.559324,-0.4642 0.493675,-1.51708 -0.114898,-1.84278 -0.281469,-0.15064 -0.936313,-0.27389 -1.455203,-0.27389 h -0.943435 v 2.26836 c 0,2.02049 0.0506,2.25788 0.463021,2.17244 0.332761,-0.0689 0.446502,-0.3163 0.404301,-0.87929 z m 0.117176,-2.24941 c 0.162124,-0.61995 0.693852,-0.5559 0.820838,0.0989 0.05663,0.29201 -0.09149,0.44109 -0.43825,0.44109 -0.397031,0 -0.489622,-0.13068 -0.382588,-0.53998 z m 5.042046,2.77394 c 0.925219,-0.64805 0.769638,-1.62675 -0.342932,-2.1573 -1.032743,-0.49248 -1.086519,-0.99994 -0.106796,-1.0078 0.389617,-0.003 0.66974,-0.18232 0.723797,-0.46302 0.07006,-0.36378 -0.102283,-0.45792 -0.838357,-0.45792 -1.086953,0 -1.75809,0.56788 -1.75809,1.48761 0,0.49969 0.220713,0.74828 0.926042,1.04299 1.390806,0.58111 1.22383,1.04526 -0.330729,0.91934 -0.441299,-0.0358 -0.595313,0.0936 -0.595313,0.49987 0,0.44293 0.166402,0.54811 0.86717,0.54811 0.476945,0 1.131789,-0.18535 1.455208,-0.41188 z m 6.786001,-0.0955 c 0.686721,-0.75882 0.435984,-1.67487 -0.580929,-2.12239 -0.976337,-0.42967 -0.997985,-0.93955 -0.04022,-0.94724 0.389618,-0.003 0.66974,-0.18232 0.723797,-0.46302 0.06898,-0.3582 -0.09875,-0.45792 -0.770276,-0.45792 -1.864977,0 -2.492571,1.74015 -0.900129,2.49581 1.303859,0.61872 1.216613,1.09812 -0.174998,0.96158 -0.507693,-0.0498 -0.857771,0.3892 -0.618752,0.77594 0.285073,0.46126 1.872012,0.29812 2.361504,-0.24276 z m 2.317277,-0.20278 c 0.06236,-0.52898 0.28044,-0.76234 0.854919,-0.91482 2.081874,-0.55257 1.395145,-3.00776 -0.789988,-2.82434 l -0.996738,0.0837 0.02058,1.85209 c 0.0283,2.54616 0.02249,2.51354 0.448196,2.51354 0.214333,0 0.41571,-0.30885 0.463021,-0.71013 z m -0.04857,-2.15619 c 0,-0.6242 0.22239,-0.83743 0.687326,-0.65902 0.58529,0.2246 0.458179,1.14409 -0.15816,1.14409 -0.336743,0 -0.529166,-0.17639 -0.529166,-0.48507 z m 6.229733,2.21688 c 0.931043,-0.93103 0.907659,-2.54862 -0.04771,-3.30011 -1.526415,-1.20068 -3.536193,-0.21309 -3.536193,1.73765 0,2.02523 2.173544,2.97282 3.5839,1.56246 z m -2.349229,-0.58527 c -0.401547,-0.40154 -0.169942,-1.9251 0.333611,-2.1946 1.022614,-0.54729 1.829887,0.38725 1.493223,1.72863 -0.122915,0.48974 -0.338143,0.64236 -0.905835,0.64236 -0.409536,0 -0.823987,-0.0794 -0.920999,-0.17639 z m 4.860208,0.50712 0.0095,-0.7276 0.595736,0.7276 c 0.327655,0.40019 0.799624,0.72761 1.048816,0.72761 0.582557,0 0.570418,-0.15041 -0.08661,-1.07312 l -0.539692,-0.75792 0.539692,-0.53969 c 0.673989,-0.67399 0.675693,-0.93285 0.01053,-1.59802 -0.352777,-0.35278 -0.881944,-0.52917 -1.5875,-0.52917 h -1.058334 v 2.24896 c 0,2.07257 0.0415,2.24896 0.529167,2.24896 0.398576,0 0.531516,-0.17956 0.538681,-0.72761 z m -0.0095,-2.46944 c 0,-0.6448 0.61827,-0.55366 0.747003,0.11012 0.05064,0.26108 -0.08434,0.44109 -0.330729,0.44109 -0.245436,0 -0.416274,-0.22621 -0.416274,-0.55121 z m 4.44396,1.42526 c 0.06972,-1.45448 0.142459,-1.64331 0.661458,-1.71714 0.320718,-0.0456 0.583123,-0.26154 0.583123,-0.47982 0,-0.31208 -0.367477,-0.39688 -1.719791,-0.39688 -1.352315,0 -1.719792,0.0848 -1.719792,0.39688 0,0.21828 0.267891,0.43492 0.595312,0.48142 0.547672,0.0778 0.595313,0.22226 0.595313,1.80534 0,1.49606 0.06047,1.70927 0.463021,1.63258 0.370768,-0.0706 0.478628,-0.4138 0.541356,-1.72238 z m 6.115698,1.52743 c 0.230547,-0.14594 0.562327,-0.11911 0.867971,0.0702 0.39215,0.24289 0.545481,0.22492 0.739278,-0.0866 0.167801,-0.26976 0.123216,-0.46096 -0.142116,-0.60944 -0.287938,-0.16114 -0.31864,-0.34339 -0.12029,-0.71401 0.146484,-0.27371 0.266332,-0.75233 0.266332,-1.06361 0,-0.7724 -0.897136,-0.59206 -1.010589,0.20315 -0.09674,0.67808 -0.377013,0.7554 -0.816917,0.22534 -0.230235,-0.27741 -0.228643,-0.53441 0.0065,-1.05049 0.398354,-0.87431 -0.05295,-1.49266 -1.08942,-1.49266 -0.967745,0 -1.412771,0.57607 -1.198538,1.55147 0.09898,0.45064 0.05305,0.85242 -0.108887,0.9525 -0.380312,0.23504 -0.354984,1.54862 0.03742,1.94103 0.36983,0.36983 2.026087,0.41698 2.569242,0.0731 z m -1.780876,-0.889 c -0.170736,-0.20572 -0.189876,-0.48841 -0.04855,-0.71708 0.19658,-0.31807 0.318138,-0.3007 0.772377,0.11038 0.558046,0.50503 0.514622,0.94631 -0.09312,0.94631 -0.191876,0 -0.475695,-0.15282 -0.630709,-0.33961 z m 0.217051,-2.43852 c 0,-0.21828 0.119062,-0.39687 0.264583,-0.39687 0.145521,0 0.264584,0.17859 0.264584,0.39687 0,0.21828 -0.119063,0.39688 -0.264584,0.39688 -0.145521,0 -0.264583,-0.1786 -0.264583,-0.39688 z m 8.946888,2.97657 c 0.07162,-0.3779 -0.105188,-0.46303 -0.961681,-0.46303 -1.060021,0 -1.375598,-0.29521 -1.366573,-1.27841 0.0073,-0.79447 0.479684,-1.21735 1.369915,-1.22631 1.2856,-0.0129 1.187619,-0.77666 -0.113472,-0.88446 -0.77016,-0.0638 -1.13537,0.065 -1.653646,0.58328 -1.483421,1.48342 -0.400537,3.98423 1.651447,3.81384 0.688422,-0.0572 1.012762,-0.22172 1.07401,-0.54491 z m 3.958823,0.18343 c 0.511654,-0.35838 0.588039,-0.65051 0.588039,-2.24896 0,-1.45657 -0.0822,-1.83708 -0.396875,-1.83708 -0.304038,0 -0.396875,0.33598 -0.396875,1.43631 0,0.95296 -0.139917,1.57623 -0.415774,1.85208 -0.874445,0.87445 -1.389703,0.32978 -1.487467,-1.57238 -0.06446,-1.25422 -0.176273,-1.59668 -0.544155,-1.66669 -0.403915,-0.0769 -0.463021,0.13968 -0.463021,1.69639 0,1.2892 0.121537,1.9188 0.437883,2.26835 0.537454,0.59388 1.881553,0.63001 2.678245,0.072 z m 4.292198,-0.11729 c 0,-0.38806 -0.17639,-0.52917 -0.66145,-0.52917 -0.63772,0 -0.66146,-0.0617 -0.66146,-1.71979 0,-1.5434 -0.0543,-1.71979 -0.52917,-1.71979 -0.48766,0 -0.52917,0.17639 -0.52917,2.24896 v 2.24896 h 1.19063 c 1.01423,0 1.19062,-0.0784 1.19062,-0.52917 z m 1.85209,-1.17222 c 0,-1.56055 0.049,-1.70839 0.59261,-1.78594 0.32593,-0.0465 0.63232,-0.29291 0.68086,-0.54757 0.0769,-0.40338 -0.13827,-0.46302 -1.67035,-0.46302 -1.53208,0 -1.74722,0.0596 -1.67034,0.46302 0.0485,0.25466 0.32516,0.49707 0.61471,0.53869 0.45981,0.0661 0.51481,0.24272 0.43437,1.39521 -0.10791,1.54611 0.054,2.101 0.61296,2.101 0.32184,0 0.40518,-0.34994 0.40518,-1.70139 z m 4.968206,1.28951 c 0.51165,-0.35838 0.58804,-0.65051 0.58804,-2.24896 0,-1.45657 -0.0822,-1.83708 -0.39688,-1.83708 -0.30404,0 -0.39687,0.33598 -0.39687,1.43631 0,0.95296 -0.13992,1.57623 -0.41578,1.85208 -0.47431,0.47431 -0.45763,0.47013 -1.01779,0.25518 -0.32124,-0.12327 -0.41852,-0.55375 -0.41852,-1.85209 0,-1.51509 -0.0552,-1.69148 -0.52916,-1.69148 -0.47629,0 -0.52917,0.17639 -0.52917,1.76511 0,1.27115 0.12254,1.9005 0.43788,2.24895 0.53746,0.59388 1.88156,0.63001 2.67825,0.072 z m 2.96444,-0.36132 0.15064,-0.63813 0.46237,0.70566 c 0.2543,0.38812 0.69775,0.70567 0.98544,0.70567 0.65865,0 0.65423,-0.1086 -0.0427,-1.05131 -0.5242,-0.70901 -0.53393,-0.79718 -0.13229,-1.19881 0.59022,-0.59022 0.54866,-1.63839 -0.0783,-1.97391 -0.28148,-0.15064 -0.93632,-0.27389 -1.45521,-0.27389 h -0.94344 v 2.26836 c 0,1.99571 0.0543,2.25791 0.45142,2.18142 0.24828,-0.0478 0.51921,-0.37409 0.60207,-0.72506 z m 0.005,-2.42385 c 0,-0.6448 0.61827,-0.55366 0.747,0.11012 0.0506,0.26108 -0.0843,0.44109 -0.33073,0.44109 -0.24543,0 -0.41627,-0.22621 -0.41627,-0.55121 z m 5.50724,2.73403 c -0.053,-0.27927 -0.37568,-0.49625 -0.81315,-0.54674 -0.92454,-0.10672 -0.98033,-0.84233 -0.0639,-0.84233 0.41157,0 0.66145,-0.14993 0.66145,-0.39687 0,-0.24694 -0.24988,-0.39688 -0.66145,-0.39688 -0.45913,0 -0.66146,-0.14482 -0.66146,-0.47345 0,-0.3415 0.20076,-0.47054 0.72034,-0.46302 0.47965,0.007 0.75134,-0.14427 0.81314,-0.45259 0.0786,-0.39232 -0.11213,-0.46302 -1.2495,-0.46302 h -1.34232 v 2.24896 2.24896 h 1.34232 c 1.13546,0 1.32878,-0.0714 1.25451,-0.46302 z m 9.98291,-0.18642 c 1.36686,-1.36685 0.55293,-3.5839 -1.31574,-3.5839 -1.55915,0 -2.48256,1.77063 -1.69939,3.25854 0.16731,0.31786 0.4352,0.6654 0.59531,0.77231 0.60915,0.40674 1.78294,0.18994 2.41982,-0.44695 z m -1.8048,-0.44448 c -0.52604,-0.29438 -0.61221,-1.55464 -0.13869,-2.02817 0.44824,-0.44823 1.18398,-0.39414 1.37399,0.10102 0.50289,1.31051 -0.24692,2.48027 -1.2353,1.92715 z m 6.68756,-1.05755 c 0,-1.90548 -0.0448,-2.08187 -0.52916,-2.08187 -0.45759,0 -0.52917,0.17639 -0.52917,1.30402 0,0.8327 -0.15028,1.4543 -0.41577,1.71979 -0.83475,0.83475 -1.17173,0.33937 -1.17173,-1.72253 0,-0.9803 -0.0979,-1.30128 -0.39687,-1.30128 -0.31387,0 -0.39688,0.3763 -0.39688,1.79917 0,0.98954 0.13297,1.93214 0.2955,2.09466 0.16252,0.16253 0.93643,0.28974 1.71979,0.2827 l 1.42429,-0.0128 z m 2.06458,0.4668 c 0.0659,-1.27246 0.17167,-1.57114 0.595307,-1.68193 0.28331,-0.0741 0.51511,-0.29806 0.51511,-0.49772 0,-0.26059 -0.31726,-0.3452 -1.124477,-0.29987 l -1.12447,0.0632 -0.0798,1.69192 c -0.0939,1.99261 0.0452,2.47967 0.67428,2.35996 0.36748,-0.0699 0.48048,-0.40965 0.54402,-1.63551 z m 5.740627,1.1555 c 0,-0.21828 -0.26789,-0.43492 -0.59531,-0.48142 -0.51506,-0.0732 -0.59531,-0.24257 -0.59531,-1.25677 0,-1.07399 0.0554,-1.17223 0.66146,-1.17223 0.41157,0 0.66145,-0.14993 0.66145,-0.39687 0,-0.24694 -0.24988,-0.39688 -0.66145,-0.39688 -0.52917,0 -0.66146,-0.13229 -0.66146,-0.66145 0,-0.41158 -0.14993,-0.66146 -0.39688,-0.66146 -0.24176,0 -0.39687,0.24645 -0.39687,0.6306 0,0.41815 -0.18725,0.67956 -0.55579,0.77594 -0.59563,0.15576 -0.45938,0.71012 0.17453,0.71012 0.28838,0 0.38126,0.37598 0.38126,1.54341 0,0.84887 0.085,1.62842 0.18893,1.73233 0.34739,0.34739 1.79544,0.0528 1.79544,-0.36532 z m 3.16315,0.36481 c 0.50646,-0.19434 1.20248,-1.44927 1.20248,-2.16807 0,-0.94057 -1.01221,-1.90091 -2.00358,-1.90091 -1.25056,0 -1.96517,0.7697 -1.96517,2.11667 0,1.65585 1.24643,2.53553 2.76627,1.95231 z m -1.25905,-0.83264 c -0.38349,-0.0849 -0.4614,-0.32197 -0.39688,-1.20794 0.0664,-0.91193 0.18304,-1.11695 0.67517,-1.18685 0.67833,-0.0963 1.18747,0.84641 0.94919,1.75759 -0.15807,0.60449 -0.52187,0.79334 -1.22748,0.6372 z m 5.31903,0.6795 c 0.24694,-0.24695 0.3175,-0.24695 0.3175,0 0,0.17462 0.17859,0.3175 0.39687,0.3175 0.31971,0 0.39688,-0.41158 0.39688,-2.11667 0,-1.70509 -0.0772,-2.11667 -0.39688,-2.11667 -0.29249,0 -0.39687,0.30543 -0.39687,1.16132 0,1.25258 -0.73904,2.50683 -1.28007,2.17246 -0.1777,-0.10983 -0.30743,-0.85331 -0.30743,-1.76189 0,-1.3955 -0.0594,-1.57189 -0.52917,-1.57189 -0.47101,0 -0.52917,0.17639 -0.52917,1.6049 0,0.88269 0.12325,1.83519 0.2739,2.11666 0.31041,0.58003 1.55134,0.69737 2.05444,0.19428 z m 4.33156,-0.12039 c 0.84727,-0.76677 0.43229,-1.81739 -0.90521,-2.29172 -0.74222,-0.26321 -0.5341,-0.70998 0.33073,-0.70998 0.52917,0 0.79375,-0.13229 0.79375,-0.39687 0,-0.60064 -1.66204,-0.51625 -2.2318,0.11333 -0.62487,0.69048 -0.3106,1.57781 0.68128,1.92358 0.92652,0.32299 0.86107,0.87351 -0.10386,0.87351 -0.7894,0 -1.11778,0.24301 -0.87004,0.64385 0.26884,0.43499 1.76404,0.334 2.30515,-0.1557 z m 5.08119,0.94425 c -0.45464,-0.13182 -0.96606,-0.40767 -1.13648,-0.61302 -0.17042,-0.20534 -0.89327,-2.66532 -1.60633,-5.46662 -0.71307,-2.8013 -1.45181,-5.19179 -1.64165,-5.31219 -0.18984,-0.12041 -0.60833,-0.22075 -0.92998,-0.22298 -0.32165,-0.002 -3.06008,-0.42026 -6.08542,-0.92897 -3.02533,-0.5087 -10.977477,-1.81801 -17.671427,-2.90958 -6.69396,-1.09157 -14.69973,-2.40748 -17.7906,-2.92424 -3.09087,-0.51675 -6.741456,-1.10794 -8.112416,-1.31374 l -2.49267,-0.37419 -2.206318,0.95682 c -2.987397,1.29554 -4.404548,1.64919 -7.385838,1.84312 -3.226028,0.20985 -6.374276,-0.24058 -9.04665,-1.29432 -1.130432,-0.44575 -2.097891,-0.763 -2.149909,-0.70501 -0.05202,0.058 -1.970391,2.96294 -4.263046,6.45543 -2.292657,3.4925 -4.202676,6.38982 -4.244485,6.43849 -0.04181,0.0487 -1.544323,-0.47545 -3.338917,-1.16473 -1.794592,-0.68927 -4.274929,-1.63933 -5.511856,-2.11126 -1.236927,-0.47193 -3.856302,-1.48051 -5.820833,-2.2413 -4.745503,-1.83776 -5.978422,-2.16856 -7.353353,-1.973 -1.335612,0.18998 -2.73724,1.30156 -3.2430415,2.57194 -0.436634,1.09666 -0.370565,1.03264 -0.868567,0.84154 -0.373014,-0.14313 -0.382538,-0.25476 -0.0739,-0.86612 0.194865,-0.38599 0.615598,-1.49722 0.934962,-2.4694 0.7088135,-2.15768 1.7954025,-3.71516 2.9156625,-4.17918 1.220118,-0.50539 2.552925,-0.13014 11.845406,3.33503 4.396497,1.63945 8.187579,3.01684 8.424627,3.06086 0.437467,0.0812 0.858115,-0.47297 5.253995,-6.92235 l 2.067732,-3.03366 -1.166296,-1.06739 c -3.71018,-3.39537 -6.527209,-8.31194 -8.0901,-14.1194 -0.600425,-2.23108 -0.690872,-3.1 -0.706964,-6.79173 -0.01614,-3.7027 0.05957,-4.49865 0.604028,-6.35 1.078619,-3.66773 2.493351,-6.04879 5.187754,-8.73125 2.791963,-2.77959 5.05877,-4.09881 9.565259,-5.5667 8.998654,-2.93113 12.946668,-4.42909 13.662528,-5.18387 0.782838,-0.82539 0.884261,-1.29463 0.453712,-2.09912 -0.177252,-0.33119002 -0.181205,-0.51177002 -0.01121,-0.51177002 0.263578,0 1.34343,3.25790002 1.34343,4.05312002 0,0.69608 -0.951796,1.37536 -3.048019,2.17532 -1.088485,0.41539 -1.979064,0.84235 -1.979064,0.9488 0,0.10645 0.678383,0.39076 1.507521,0.6318 6.80263,1.97757 12.6255,8.44241 15.367546,17.06179 1.15649,3.63531 1.47791,6.06539 1.30319,9.85283 -0.22704,4.92185 -1.4179,8.37706 -4.107846,11.91874 -0.86781,1.14259 -1.24467,1.83772 -1.03634,1.91155 0.18006,0.0638 5.387536,0.94728 11.572166,1.96326 24.157197,3.96843 35.435777,5.81667 38.108617,6.24491 l 2.78674,0.4465 1.00874,5.19621 c 0.55481,2.85791 1.24139,5.69236 1.52573,6.29877 0.68054,1.45133 1.62026,2.04404 3.20299,2.02022 0.82903,-0.0125 1.25677,0.0919 1.25677,0.30683 0,0.20683 -0.9615,0.48543 -2.63388,0.76317 -2.927,0.48611 -2.98011,0.48803 -4.14587,0.15004 z M 61.885313,49.728659 c 2.601684,-0.87027 4.160054,-1.87729 6.028874,-3.89584 1.76122,-1.90231 3.083156,-4.49996 3.699206,-7.26901 0.65058,-2.92421 0.40691,-8.11232 -0.53104,-11.30681 -2.453506,-8.35625 -7.848131,-14.55186 -14.291076,-16.41301 -2.3705,-0.68476 -6.334469,-0.44204 -8.611646,0.52729 -4.220495,1.79655 -6.886969,4.72241 -8.503396,9.33058 -0.702246,2.002 -0.954738,6.85094 -0.51377,9.86672 0.421185,2.88051 2.045861,7.39571 3.640711,10.11806 1.657607,2.82946 5.371854,6.59458 7.744222,7.85029 3.881348,2.05443 7.592661,2.44452 11.337915,1.19173 z M 49.912007,19.207739 c -0.253167,-0.27975 -0.523568,-0.9803 -0.60089,-1.55678 -0.257032,-1.91632 1.500492,-2.83205 2.984881,-1.55523 0.561382,0.48288 0.712292,0.8463 0.712292,1.71535 0,0.60647 -0.149878,1.28326 -0.33306,1.50398 -0.483859,0.58301 -2.198756,0.51641 -2.763223,-0.10732 z m 7.582619,-0.4622 c -0.461661,-0.18575 -1.118912,-1.51589 -1.118912,-2.26445 0,-1.68864 1.957353,-2.42647 3.12888,-1.17944 0.699307,0.74438 0.79038,2.57433 0.159512,3.2052 -0.400984,0.40098 -1.472975,0.51892 -2.16948,0.23869 z m 68.737814,49.13173 c -1.09981,-1.09981 -0.9508,-2.84838 0.32383,-3.80003 0.61197,-0.4569 0.79115,-0.47799 1.51478,-0.17825 1.01455,0.42024 1.32966,0.98109 1.32966,2.36665 0,1.31099 -0.71432,2.13406 -1.85209,2.13406 -0.43756,0 -1.02818,-0.23444 -1.31618,-0.52243 z m 3.77503,-5.19654 c -0.61217,-0.36918 -1.18577,-0.90041 -1.27466,-1.1805 -0.14875,-0.46866 0.61473,-2.2219 2.18029,-5.00678 0.28632,-0.50932 3.21799,-5.92666 6.51481,-12.03854 3.29683,-6.11187 6.0978,-11.2725 6.22437,-11.46806 0.18014,-0.27831 0.52524,-0.14356 1.58825,0.62013 0.74695,0.53663 1.35809,1.02589 1.35809,1.08724 0,0.0614 -0.40407,0.73479 -0.89793,1.49653 -0.49386,0.76175 -3.18791,5.07593 -5.98678,9.58708 -2.79887,4.51115 -6.08574,9.79693 -7.30415,11.74619 -1.21842,1.94926 -2.2153,3.81985 -2.2153,4.15688 0,0.33702 0.26057,0.85553 0.57905,1.15224 0.75049,0.69919 0.59464,0.66818 -0.76604,-0.15241 z m -10.86508,-7.05395 c -1.08811,-0.20906 -1.36741,-0.3614 -1.2703,-0.69284 0.0685,-0.23368 0.43712,-2.15127 0.81923,-4.26132 0.3821,-2.11005 1.03726,-5.68193 1.4559,-7.9375 1.11389,-6.00137 1.12981,-6.96097 0.13334,-8.03617 -0.35941,-0.38782 -1.01425,-0.77727 -1.4552,-0.86546 -0.44792,-0.0896 -0.80174,-0.32877 -0.80174,-0.54198 0,-0.24059 0.17112,-0.32971 0.46302,-0.24114 0.25467,0.0773 1.28012,0.26833 2.2788,0.42455 2.32468,0.36367 3.70155,1.06434 4.13157,2.1025 0.18401,0.44424 0.39755,0.8077 0.47453,0.8077 0.077,0 0.80668,-0.32742 1.62155,-0.7276 2.73303,-1.3422 6.61606,-0.72969 7.77121,1.22582 0.65128,1.10254 0.5715,1.54577 -0.36546,2.03029 -0.79252,0.40983 -0.84833,0.40156 -1.52135,-0.22546 -0.9763,-0.90956 -1.59976,-1.18808 -3.107,-1.38802 -1.55706,-0.20656 -3.13527,0.17435 -4.14319,0.99998 -0.78223,0.64074 -0.77566,0.61336 -2.67976,11.18187 -0.36706,2.03729 -0.80153,4.32924 -0.96549,5.09323 -0.33289,1.5511 -0.30105,1.53931 -2.83966,1.05155 z m -8.77084,-1.14548 c -0.93443,-0.20433 -1.73522,-0.40778 -1.77954,-0.4521 -0.0443,-0.0443 0.15027,-1.3237 0.43244,-2.84306 3.09509,-16.66579 3.06372,-16.38443 1.97177,-17.68214 -0.40775,-0.48457 -1.04087,-0.87324 -1.59043,-0.97633 -0.88216,-0.1655 -1.37041,-0.52999 -1.08811,-0.8123 0.14839,-0.14839 4.01565,0.56841 5.40233,1.00131 2.20071,0.68705 2.36942,2.22643 1.02577,9.35962 -0.49313,2.61792 -1.2284,6.57557 -1.63394,8.79476 -0.40553,2.21919 -0.80574,4.02294 -0.88934,4.00833 -0.0836,-0.0146 -0.91653,-0.19375 -1.85095,-0.39809 z m -91.507016,-0.62946 c -0.955075,-0.43349 -1.253377,-0.77207 -1.918021,-2.177 -0.432876,-0.91502 -0.787143,-1.81251 -0.787257,-1.99441 -5.29e-4,-0.64301 0.670084,-0.29786 1.359377,0.69978 1.576802,2.28215 5.200316,2.81588 8.562289,1.26119 2.778792,-1.28501 3.925689,-2.93148 3.320132,-4.76633 -0.686451,-2.07997 -2.240391,-2.73354 -7.646358,-3.216 -4.814752,-0.4297 -6.344697,-0.87925 -7.73962,-2.27417 -2.428521,-2.42852 -2.241243,-6.32818 0.415948,-8.66123 2.441679,-2.14382 7.816171,-3.65936 10.473955,-2.95353 1.515404,0.40245 2.288738,1.12239 3.063759,2.85221 1.06145,2.36913 0.718058,2.55053 -1.159365,0.61243 -1.482746,-1.53067 -2.888088,-2.0215 -5.058846,-1.76685 -4.340011,0.50913 -6.978222,3.57149 -5.334339,6.19196 0.866563,1.38137 2.415871,1.90651 6.861932,2.32587 2.123625,0.2003 4.636415,0.598 5.583975,0.88377 2.762795,0.83321 4.230286,2.77933 4.230286,5.61002 0,3.49394 -2.765698,5.94398 -8.310552,7.36201 -2.62028,0.67012 -4.45651,0.6733 -5.917295,0.0103 z m 79.183049,-1.5754 c -1.50909,-0.36902 -2.98861,-1.32154 -3.60853,-2.3232 -0.87653,-1.41629 -0.78571,-3.81231 0.37389,-9.86395 0.51586,-2.69214 1.07826,-5.72823 1.24979,-6.74688 0.17152,-1.01864 0.36515,-2.04868 0.43029,-2.28896 0.094,-0.34673 -0.14549,-0.47318 -1.16054,-0.61279 -1.69036,-0.23248 -2.02445,-0.46304 -1.82462,-1.25921 0.15839,-0.63107 0.19611,-0.63972 1.64416,-0.37726 1.76474,0.31988 1.7637,0.32092 2.21813,-2.22191 0.30464,-1.70466 0.41256,-1.90007 1.59713,-2.89184 0.88584,-0.74168 1.519587,-1.06365 2.093577,-1.06365 1.01181,0 1.02183,0.13963 0.2941,4.10059 -0.34801,1.89414 -0.43696,2.93668 -0.25991,3.0461 0.14804,0.0915 1.3973,0.37884 2.77614,0.63853 2.4959,0.4701 2.50622,0.47527 2.33935,1.17212 -0.0922,0.38497 -0.19264,0.73181 -0.22324,0.77075 -0.0306,0.0389 -0.87705,-0.0999 -1.88101,-0.30844 -1.00395,-0.20858 -2.23716,-0.41903 -2.74045,-0.46767 l -0.91508,-0.0884 -1.001237,5.42395 c -1.89937,10.28936 -1.95577,10.73243 -1.52243,11.959 0.60743,1.71932 1.47723,2.19531 4.022097,2.20105 2.54074,0.006 2.90571,0.38581 0.97061,1.01078 -1.39978,0.45208 -3.472947,0.53349 -4.872217,0.19133 z m -21.79852,-3.47733 c -0.63855,-0.12542 -1.20624,-0.27327 -1.26152,-0.32854 -0.0553,-0.0553 0.57878,-3.71986 1.40902,-8.1435 0.91692,-4.88548 1.51604,-8.80504 1.52611,-9.98413 0.0155,-1.8172 -0.0317,-1.9827 -0.74027,-2.59215 -0.41627,-0.35806 -1.10088,-0.71982 -1.52135,-0.80391 -0.74609,-0.14922 -0.97934,-0.45192 -0.55183,-0.71614 0.11698,-0.0723 0.68252,-0.0302 1.25677,0.0936 0.57425,0.12379 1.72989,0.3632 2.56809,0.53201 1.66747,0.33583 3.10621,1.32885 3.10621,2.14392 0,0.66689 0.21941,0.64102 1.88276,-0.22195 2.5829,-1.34006 6.39533,-0.84686 7.66951,0.99218 0.89753,1.29544 0.85952,1.70971 -0.20338,2.21657 -0.87873,0.41904 -0.99657,0.42374 -1.2068,0.0481 -0.72966,-1.30384 -4.23291,-2.08776 -6.11603,-1.36859 -1.93793,0.7401 -2.12137,1.11498 -3.05724,6.24769 -2.39011,13.10835 -2.1654,12.1741 -2.92047,12.14184 -0.37321,-0.016 -1.20101,-0.1316 -1.83958,-0.25702 z m 37.518297,-19.6323 c -1.05506,-0.81005 -1.37295,-2.76537 -0.62353,-3.83532 0.49625,-0.70848 2.06962,-0.80599 2.95856,-0.18336 1.08284,0.75845 1.2911,2.85056 0.3877,3.8948 -0.4662,0.53889 -2.0862,0.61259 -2.72273,0.12388 z"
       style="fill:#cb0060;fill-opacity:1;stroke-width:0.264583" />
  </g>
</svg>
