<?xml version="1.0" encoding="UTF-8" standalone="no"?>
<svg
   xmlns:dc="http://purl.org/dc/elements/1.1/"
   xmlns:cc="http://creativecommons.org/ns#"
   xmlns:rdf="http://www.w3.org/1999/02/22-rdf-syntax-ns#"
   xmlns:svg="http://www.w3.org/2000/svg"
   xmlns="http://www.w3.org/2000/svg"
   xmlns:xlink="http://www.w3.org/1999/xlink"
   xmlns:sodipodi="http://sodipodi.sourceforge.net/DTD/sodipodi-0.dtd"
   xmlns:inkscape="http://www.inkscape.org/namespaces/inkscape"
   inkscape:version="1.0 (6e3e5246a0, 2020-05-07)"
   sodipodi:docname="thortles_disque4.svg"
   xml:space="preserve"
   viewBox="0 0 680.31492 680.31496"
   y="0px"
   x="0px"
   id="Calque_1"
   version="1.1"
   width="18cm"
   height="18cm"
   inkscape:export-filename="/home/mmouterde/Desktop/thortles_disque3.png"
   inkscape:export-xdpi="300"
   inkscape:export-ydpi="300"><metadata
   id="metadata1048"><rdf:RDF><cc:Work
       rdf:about=""><dc:format>image/svg+xml</dc:format><dc:type
         rdf:resource="http://purl.org/dc/dcmitype/StillImage" /><dc:title /></cc:Work></rdf:RDF></metadata><defs
   id="defs1046"><clipPath
     id="SVGID_2_"><use
       xlink:href="#SVGID_1_"
       style="overflow:visible"
       id="use782"
       x="0"
       y="0"
       width="100%"
       height="100%" /></clipPath><clipPath
     id="clipPath154"><use
       xlink:href="#SVGID_1_"
       style="overflow:visible"
       id="use152"
       x="0"
       y="0"
       width="100%"
       height="100%" /></clipPath><clipPath
     id="clipPath158"><use
       xlink:href="#SVGID_1_"
       style="overflow:visible"
       id="use156"
       x="0"
       y="0"
       width="100%"
       height="100%" /></clipPath><clipPath
     id="clipPath162"><use
       xlink:href="#SVGID_1_"
       style="overflow:visible"
       id="use160"
       x="0"
       y="0"
       width="100%"
       height="100%" /></clipPath><clipPath
     id="clipPath166"><use
       xlink:href="#SVGID_1_"
       style="overflow:visible"
       id="use164"
       x="0"
       y="0"
       width="100%"
       height="100%" /></clipPath><clipPath
     id="clipPath170"><use
       xlink:href="#SVGID_1_"
       style="overflow:visible"
       id="use168"
       x="0"
       y="0"
       width="100%"
       height="100%" /></clipPath><clipPath
     id="clipPath174"><use
       xlink:href="#SVGID_1_"
       style="overflow:visible"
       id="use172"
       x="0"
       y="0"
       width="100%"
       height="100%" /></clipPath><clipPath
     id="clipPath178"><use
       xlink:href="#SVGID_1_"
       style="overflow:visible"
       id="use176"
       x="0"
       y="0"
       width="100%"
       height="100%" /></clipPath><clipPath
     id="clipPath182"><use
       xlink:href="#SVGID_1_"
       style="overflow:visible"
       id="use180"
       x="0"
       y="0"
       width="100%"
       height="100%" /></clipPath><clipPath
     id="clipPath186"><use
       xlink:href="#SVGID_1_"
       style="overflow:visible"
       id="use184"
       x="0"
       y="0"
       width="100%"
       height="100%" /></clipPath><clipPath
     id="clipPath190"><use
       xlink:href="#SVGID_1_"
       style="overflow:visible"
       id="use188"
       x="0"
       y="0"
       width="100%"
       height="100%" /></clipPath><clipPath
     id="clipPath194"><use
       xlink:href="#SVGID_1_"
       style="overflow:visible"
       id="use192"
       x="0"
       y="0"
       width="100%"
       height="100%" /></clipPath><clipPath
     id="clipPath198"><use
       xlink:href="#SVGID_1_"
       style="overflow:visible"
       id="use196"
       x="0"
       y="0"
       width="100%"
       height="100%" /></clipPath><clipPath
     id="clipPath202"><use
       xlink:href="#SVGID_1_"
       style="overflow:visible"
       id="use200"
       x="0"
       y="0"
       width="100%"
       height="100%" /></clipPath><clipPath
     id="clipPath206"><use
       xlink:href="#SVGID_1_"
       style="overflow:visible"
       id="use204"
       x="0"
       y="0"
       width="100%"
       height="100%" /></clipPath><clipPath
     id="clipPath210"><use
       xlink:href="#SVGID_1_"
       style="overflow:visible"
       id="use208"
       x="0"
       y="0"
       width="100%"
       height="100%" /></clipPath><clipPath
     id="clipPath214"><use
       xlink:href="#SVGID_1_"
       style="overflow:visible"
       id="use212"
       x="0"
       y="0"
       width="100%"
       height="100%" /></clipPath><clipPath
     id="clipPath218"><use
       xlink:href="#SVGID_1_"
       style="overflow:visible"
       id="use216"
       x="0"
       y="0"
       width="100%"
       height="100%" /></clipPath><clipPath
     id="clipPath222"><use
       xlink:href="#SVGID_1_"
       style="overflow:visible"
       id="use220"
       x="0"
       y="0"
       width="100%"
       height="100%" /></clipPath><clipPath
     id="clipPath226"><use
       xlink:href="#SVGID_1_"
       style="overflow:visible"
       id="use224"
       x="0"
       y="0"
       width="100%"
       height="100%" /></clipPath><clipPath
     id="clipPath230"><use
       xlink:href="#SVGID_1_"
       style="overflow:visible"
       id="use228"
       x="0"
       y="0"
       width="100%"
       height="100%" /></clipPath><clipPath
     id="clipPath234"><use
       xlink:href="#SVGID_1_"
       style="overflow:visible"
       id="use232"
       x="0"
       y="0"
       width="100%"
       height="100%" /></clipPath><clipPath
     id="clipPath238"><use
       xlink:href="#SVGID_1_"
       style="overflow:visible"
       id="use236"
       x="0"
       y="0"
       width="100%"
       height="100%" /></clipPath><clipPath
     id="clipPath242"><use
       xlink:href="#SVGID_1_"
       style="overflow:visible"
       id="use240"
       x="0"
       y="0"
       width="100%"
       height="100%" /></clipPath><clipPath
     id="clipPath246"><use
       xlink:href="#SVGID_1_"
       style="overflow:visible"
       id="use244"
       x="0"
       y="0"
       width="100%"
       height="100%" /></clipPath><clipPath
     id="clipPath250"><use
       xlink:href="#SVGID_1_"
       style="overflow:visible"
       id="use248"
       x="0"
       y="0"
       width="100%"
       height="100%" /></clipPath><clipPath
     id="clipPath254"><use
       xlink:href="#SVGID_1_"
       style="overflow:visible"
       id="use252"
       x="0"
       y="0"
       width="100%"
       height="100%" /></clipPath><clipPath
     id="clipPath258"><use
       xlink:href="#SVGID_1_"
       style="overflow:visible"
       id="use256"
       x="0"
       y="0"
       width="100%"
       height="100%" /></clipPath><clipPath
     id="clipPath262"><use
       xlink:href="#SVGID_1_"
       style="overflow:visible"
       id="use260"
       x="0"
       y="0"
       width="100%"
       height="100%" /></clipPath><clipPath
     id="clipPath266"><use
       xlink:href="#SVGID_1_"
       style="overflow:visible"
       id="use264"
       x="0"
       y="0"
       width="100%"
       height="100%" /></clipPath><clipPath
     id="clipPath270"><use
       xlink:href="#SVGID_1_"
       style="overflow:visible"
       id="use268"
       x="0"
       y="0"
       width="100%"
       height="100%" /></clipPath><clipPath
     id="clipPath274"><use
       xlink:href="#SVGID_1_"
       style="overflow:visible"
       id="use272"
       x="0"
       y="0"
       width="100%"
       height="100%" /></clipPath><clipPath
     id="clipPath278"><use
       xlink:href="#SVGID_1_"
       style="overflow:visible"
       id="use276"
       x="0"
       y="0"
       width="100%"
       height="100%" /></clipPath><clipPath
     id="clipPath282"><use
       xlink:href="#SVGID_1_"
       style="overflow:visible"
       id="use280"
       x="0"
       y="0"
       width="100%"
       height="100%" /></clipPath><rect
     id="SVGID_1_"
     x="291.79999"
     y="209.60001"
     width="248.39999"
     height="68.900002" /><defs
     id="defs780"><rect
       height="68.900002"
       width="248.39999"
       y="209.60001"
       x="291.79999"
       id="rect507" /></defs><clipPath
     id="clipPath288"><use
       height="100%"
       width="100%"
       y="0"
       x="0"
       id="use286"
       style="overflow:visible"
       xlink:href="#SVGID_1_" /></clipPath></defs><sodipodi:namedview
   units="cm"
   inkscape:document-units="px"
   inkscape:current-layer="Calque_1"
   inkscape:window-maximized="1"
   inkscape:window-y="27"
   inkscape:window-x="52"
   inkscape:cy="260.42552"
   inkscape:cx="309.65214"
   inkscape:zoom="1.4142136"
   showgrid="false"
   id="namedview1044"
   inkscape:window-height="1016"
   inkscape:window-width="1868"
   inkscape:pageshadow="2"
   inkscape:pageopacity="0"
   guidetolerance="10"
   gridtolerance="10"
   objecttolerance="10"
   borderopacity="1"
   bordercolor="#666666"
   pagecolor="#ffffff"
   inkscape:document-rotation="0" />
<style
   id="style777"
   type="text/css">
	.st0{clip-path:url(#SVGID_2_);}
	.st1{clip-path:url(#SVGID_2_);fill:#FFFFFF;}
	.st2{clip-path:url(#SVGID_2_);fill:#E94E1B;}
	.st3{fill:#C3C47E;}
	.st4{fill:#A7A86D;}
	.st5{fill:#FFFFFF;}
	.st6{fill:#EC6730;}
	.st7{fill:#E94E1B;}
	.st8{fill:#8D3208;}
	.st9{clip-path:url(#SVGID_4_);}
	.st10{clip-path:url(#SVGID_4_);fill:#FFFFFF;}
	.st11{clip-path:url(#SVGID_4_);fill:#E94E1B;}
</style>




<g
   id="g909"
   transform="matrix(1.7085739,0,0,1.7085739,-372.65955,51.400491)">
	<g
   id="g885">
		<path
   id="path855"
   d="m 370.9,96.2 -8.5,2.7 2.3,-4.2 -9.4,-3.1 11.6,0.6 -1.2,-6.6 6.9,-11.7 -0.3,-2.9 -4.9,3.1 0.3,-3.2 -0.8,-2.4 -2.4,0.7 -2.7,2 v -2.7 l -1.4,-1.6 -7.1,8.9 -7,11.9 v 10.8 l 9.5,14.6 11.1,6.6 c 1.3,-8.1 4.6,-15.5 9.3,-21.8 z"
   class="st3" />
		<polygon
   id="polygon857"
   points="368.3,189.7 378.7,200.9 369.1,200.9 366.9,202.3 368.1,204.7 364.8,203.4 361.6,204.7 367.7,209.2 386.6,209.2 395.1,198.1 395.7,188.6 388.5,176.5 384.7,167.6 372.2,155.4 364.2,170.2 "
   class="st3" />
		<path
   id="path859"
   d="m 413.2,177.8 3.1,6.9 2.4,-6.9 c -0.8,0 -1.6,0.1 -2.4,0.1 -1,0 -2.1,-0.1 -3.1,-0.1 z"
   class="st4" />
		<polygon
   id="polygon861"
   points="398.8,55.6 393.1,59.3 396.4,57.8 399.4,57.6 400.2,59.3 403.4,58.5 401.9,55.9 "
   class="st5" />
		<polygon
   id="polygon863"
   points="400.5,68.4 400.2,67.2 394.1,68.7 389.3,67.8 388.6,71.3 395.2,71.8 "
   class="st5" />
		<polygon
   id="polygon865"
   points="459,76.3 457,72.9 454.1,74.7 454,78.3 "
   class="st4" />
		<path
   id="path867"
   d="m 394.4,66.8 6.5,-2.4 4.6,5.1 -8.7,5.1 -1.6,1.7 1.8,5.4 c 6,-2.5 12.5,-3.9 19.4,-3.9 1.2,0 2.4,0 3.6,0.1 l -0.5,-8.2 4.8,8.7 c 5,0.8 9.7,2.3 14.1,4.5 h 0.2 l -8.7,-23.6 -19.1,-10.7 -12.8,2.3 -8.7,5 -5,9.9 1.47883,4.602512 L 386.8,67.5 v -2.6 l 2.2,1 z m -3.1,-8.8 7,-4.1 12.6,-0.9 -6.6,3.6 3.63702,2.745021 L 401.7,61.9 l -7.6,0.6 -2.5,-1.2 -3.6,1.4 z"
   class="st3"
   sodipodi:nodetypes="ccccccsccccccccccccccccccccccccc" />
		<polygon
   id="polygon869"
   points="372.7,79.3 378,80.6 377.3,77 374.1,75.7 "
   class="st4" />
		<path
   id="path871"
   d="m 458,155.2 c -3.3,4.9 -7.4,9.5 -12.1,13 l -6,6.9 -1.2,6.8 -2.8,14.4 9.5,11.1 17.5,1 5.9,-2.7 v -4.5 l -3,0.4 1.7,-1.4 -3.3,-2.2 -9,4.2 2.6,-3.7 1.8,-2.8 4.6,-7.1 3.3,-15.5 -4.1,-14.5 z"
   class="st3"
   sodipodi:nodetypes="ccccccccccccccccccc" />
		<path
   id="path873"
   d="m 477.6,69.7 -8.4,-7.7 -1.2,1.8 0.4,2.6 -2.9,-1.6 -2.5,-0.3 -0.4,2.5 0.8,3.1 -5.3,-2.3 0.1,2.9 8.7,11.5 -0.3,5.7 11.4,-2.4 -8.8,4.5 3,3.8 -8.8,-1.3 -6.9,2.4 -1.88844,0.70877 c 1,1.2 1.98844,2.39123 2.88844,3.69123 3.8,5.6 6.6,12 7.9,18.8 l 15.5,-10.2 7.62768,-16.716791 -2.06078,-11.001499 z"
   class="st3"
   sodipodi:nodetypes="cccccccccccccccccccccccc" />
		<path
   id="path875"
   d="m 442.14681,103.87123 c -3.10001,-3.41752 -6.84139,-6.317234 -11.11727,-8.284894 -4.27588,-1.967662 -9.08624,-3.003272 -13.89659,-3.003272 -4.81036,0 -9.62072,1.03561 -13.89659,3.106832 -4.27588,1.967661 -8.01727,4.867374 -11.11728,8.284884 -1.49655,1.65698 -2.88621,3.52107 -4.06208,5.38518 -0.32069,0.51781 -0.53448,0.93205 -0.85517,1.44985 -0.21379,0.51782 -0.53448,0.93205 -0.74828,1.44986 -0.21379,0.5178 -0.53448,1.03561 -0.74827,1.44985 -0.2138,0.51781 -0.42759,1.0356 -0.64139,1.55342 -1.60346,4.14244 -2.45862,8.49201 -2.35173,12.84157 0,4.34957 0.96207,8.69913 2.56553,12.73801 1.71035,4.03888 4.16897,7.76708 7.26898,10.97747 3.10001,3.21041 6.9483,5.69587 11.11728,7.55997 4.16897,1.86409 8.76553,3.00326 13.3621,3.21039 4.70347,0.20713 9.40692,-0.51781 13.78969,-2.17479 4.38277,-1.65696 8.44486,-4.24599 11.75866,-7.55995 1.60345,-1.65698 3.1,-3.52108 4.27587,-5.38518 1.17587,-1.96766 2.24484,-4.03888 2.99312,-6.1101 1.60344,-4.246 2.24483,-8.80269 2.03103,-13.15226 -0.10689,-8.90625 -3.63449,-17.50182 -9.72761,-24.33684 z"
   class="st6"
   style="stroke-width:1.05215" />
		<path
   id="path877"
   d="m 459.9,127.8 c 0,-3.7 -0.5,-7.3 -1.3,-10.7 -2.2,-8.9 -7.2,-16.6 -13.9,-22.4 -7.6,-6.6 -17.6,-10.5 -28.4,-10.5 -24.1,0 -43.6,19.5 -43.6,43.6 0,24.1 19.23324,44.79376 43.33324,44.79376 C 440.13324,172.69376 459.9,151.9 459.9,127.8 Z m -18.7,25.1 c -3.3,3.2 -7.2,5.8 -11.4,7.7 -4.2,1.8 -8.8,2.9 -13.5,3.1 -4.7,0.2 -9.4,-0.5 -13.9,-2.2 -4.5,-1.7 -8.6,-4.3 -12,-7.7 -3.5,-3.3 -6.2,-7.4 -8.1,-11.8 -1.9,-4.4 -2.9,-9.3 -2.9,-14.1 0,-4.8 1.1,-9.6 3,-14 0.5,-1.1 1,-2.2 1.6,-3.2 0.3,-0.5 0.6,-1 1,-1.5 0.3,-0.5 0.7,-1 1,-1.5 1.4,-1.9 3,-3.7 4.8,-5.2 3.5,-3.1 7.7,-5.5 12,-7 4.3,-1.5 8.9,-2.3 13.4,-2.3 4.5,0 9.1,0.8 13.4,2.3 4.3,1.6 8.5,3.9 12,7 3.5,3.1 6.4,7 8.3,11.4 1.9,4.4 2.8,9.2 2.7,14 -0.1,2.4 -0.4,4.7 -1,7 -0.6,2.3 -1.4,4.5 -2.4,6.6 -1,2.1 -2.2,4.1 -3.6,6 -1.2,2 -2.7,3.8 -4.4,5.4 z"
   class="st7"
   sodipodi:nodetypes="sccsscsccsscsscscccsscsscsscc" />
		<path
   id="path879"
   d="m 394.1,62.6 7.6,-0.6 6.4,-2.7 -3.8,-2.7 6.6,-3.6 -12.6,0.9 -7,4.1 -3.3,4.7 3.6,-1.2 z m 4.7,-7 3.1,0.3 1.5,2.6 -3.3,0.8 -0.7,-1.7 -3,0.2 -3.3,1.5 z" />
		<path
   id="path881"
   d="m 480.2,64.9 -13.8,-9.6 -1.8,5.9 -6.3,-1.9 0.7,4.9 -8.6,-1.3 3.8,7.2 -3.3,1.3 -2.4,13.2 11.2,-3.4 2.3,3 -0.9,2.9 -9.6,1.5 L 447.6,87 433.8,56.5 412,43.9 l -12.3,1.6 -13.6,7.7 -5.8,14 3.4,9.4 2.9,-2.1 1.4,0.7 3.1,2.8 1.3,5.8 c -2.2,1.2 -4.3,2.6 -6.3,4.1 l -4.3,2.6 h -9.7 l -1.3,-2.8 1.8,-3.3 11.6,1.6 -4.4,-12.6 -3.5,-0.8 2.6,-7.7 -8.3,2.6 -0.1,-5 -5.9,2.9 -2.7,-5.6 -11.9,11.6 -8.5,13.8 -0.5,13.8 6.5,12.8 6.1,9.2 12.6,7.8 c 0.1,3 0.4,5.9 0.9,8.7 l 0.6,7.9 -8.8,24.9 5.4,21.4 3.9,3.9 -2.7,3.6 -3.2,0.8 -8.5,9.9 15.2,4.2 15.3,0.9 10.1,-1.7 6.5,-14.4 0.5,-10.8 -3.2,-9.4 3.7,-2.9 c 1.8,0.5 3.6,1 5.4,1.3 l 8.9,16.6 8.6,-16.5 c 1,-0.2 1.9,-0.4 2.9,-0.6 l 5.8,6.4 -2.7,13.5 7.5,15.9 25.2,0.6 17.4,-2.9 -6.7,-10.5 -4.4,-1.6 -1.5,-6 4.6,-19 -3.4,-16.9 -6.1,-8.6 1.3,-7.2 c 0.6,-2.3 1,-4.7 1.3,-7.1 l 0.0764,-0.88545 L 466.1,132.1 c 0.1,-1 0.1,-2.1 0.2,-3.1 l 5.8,-4 12.2,-10.4 4.6,-9.8 4.5,-13.8 -2.6,-13.7 z m -26.2,13.4 0.1,-3.6 2.9,-1.8 2,3.4 z M 386.8,64.9 v 2.6 l -1,2.8 -1.4,-4.6 4.9,-9.8 8.7,-5 12.8,-2.3 19.1,10.7 8.7,23.6 -0.2,-0.1 c -4.4,-2.2 -9.1,-3.7 -14.1,-4.5 l -4.8,-8.7 0.5,8.2 c -1.2,-0.1 -2.4,-0.1 -3.6,-0.1 -6.9,0 -13.4,1.4 -19.4,3.9 l -1.8,-5.4 1.6,-1.6 8.7,-5.1 -4.6,-5.2 -6.5,2.4 -5.2,-1 z m 1.8,6.4 0.7,-3.4 4.8,0.9 6.1,-1.5 0.4,1.2 -5.3,3.4 z m -14.5,4.4 3.2,1.3 0.7,3.5 -5.3,-1.2 z m -7.2,43.8 -11.1,-6.6 -9.5,-14.6 V 87.7 l 7,-11.9 7.1,-8.9 1.4,1.6 v 2.7 l 2.7,-2 2.4,-0.7 0.8,2.4 -0.3,3.2 4.9,-3.1 0.3,2.9 -6.9,11.7 1.04185,6.287306 L 355.3,91.6 l 9.4,3.1 -2.3,4.2 8.5,-2.7 5.3,1.7 c -4.7,6.4 -7.9,13.5 -9.3,21.6 z m 28.2,78.6 -8.6,11.1 h -18.9 l -6,-1.9 3.1,-3.9 3.4,1.3 -1.2,-2.4 2.2,-1.4 h 9.6 l -10.4,-11.2 -4.1,-19.5 8,-14.8 12.3,12.2 3.8,8.9 7.2,12.1 z m 21.2,-13.4 -3.1,-6.9 c 1,0.1 2,0.1 3.1,0.1 0.8,0 1.6,0 2.4,-0.1 z m 0,-13.2 c -24.1,0 -43.6,-19.5 -43.6,-43.6 0,-24.1 19.5,-43.6 43.6,-43.6 10.9,0 20.8,4 28.4,10.5 6.7,5.8 11.59199,13.51744 13.79199,22.41744 0.9,3.4 1.40801,6.98256 1.40801,10.68256 0,24 -19.5,43.6 -43.6,43.6 z m 51.2,1.6 -3.3,15.2 -4.6,7.1 -1.8,2.8 -2.6,4 9,-4.2 3.3,2.2 -1.7,1.4 3,-0.3 v 4.1 l -5.9,2.7 -17.36225,-0.75462 -9.5,-11.3 L 438.7,181.6 l 1.2,-6.8 6.18387,-6.79166 C 450.78387,164.50834 454.8,160.1 458,155.2 l 5.4,3.4 z m 13.5,-65 -15.5,10.2 c -1.3,-6.9 -4.1,-13.3 -7.9,-18.8 -0.9,-1.3 -1.8,-2.5 -2.9,-3.8 l 1.9,-0.6 6.9,-2.4 8.7,1.1 -2.78319,-3.632893 L 478,85.5 l -11.4,2.4 0.4,-5.6 -8.7,-11.5 -0.1,-2.9 5.3,2.3 -0.8,-3.1 0.4,-2.5 2.5,0.3 2.9,1.6 -0.4,-2.6 1.2,-1.8 8.4,7.7 8.7,10.6 2,11 z"
   sodipodi:nodetypes="ccccccccccccccccccccccccccccccccccccccccccccccccccccccccccccccccccccccccccccccccccccccccccccccccccccccsccccccccccccccccccccccccccccccccccccccccccccccccccccccccccccsccsssccssccccccccccccccccccccccccccccccccccccccccccc" />
		<path
   id="path883"
   d="m 451.69421,134.70383 c 0.60345,-2.32363 0.90517,-4.74829 1.00575,-7.07191 0.10057,-4.8493 -0.8046,-9.6986 -2.71552,-14.14381 -1.91093,-4.44519 -4.8276,-8.38525 -8.34773,-11.51709 -3.52012,-3.131846 -7.74427,-5.556498 -12.06899,-7.071906 -4.32473,-1.515408 -8.95117,-2.323626 -13.47705,-2.323626 -4.52588,0 -9.15232,0.808218 -13.47705,2.323626 -4.32471,1.616436 -8.54887,3.94006 -12.06898,7.071906 -1.81036,1.61644 -3.41956,3.3339 -4.82761,5.25341 -0.30172,0.50514 -0.70402,1.01027 -1.00574,1.51541 -0.30173,0.50514 -0.70403,1.01027 -1.00575,1.5154 -0.60345,1.01028 -1.2069,2.12158 -1.6092,3.23287 -2.01151,4.44521 -3.01725,9.29451 -3.01725,14.14381 0,4.84931 0.90517,9.79964 2.91668,14.24483 1.91092,4.44521 4.72701,8.58732 8.14657,11.92121 3.41954,3.3339 7.54312,6.06164 12.06899,7.7791 4.4253,1.71746 9.25289,2.42466 13.97992,2.2226 4.72702,-0.20206 9.35347,-1.31336 13.57762,-3.13184 4.22414,-1.81849 8.14657,-4.54622 11.46554,-7.77909 1.70978,-1.61644 3.2184,-3.3339 4.52588,-5.25342 1.40804,-1.91951 2.61494,-3.94006 3.62069,-6.06163 0.90518,-2.32363 1.70978,-4.54622 2.31323,-6.86985 z m -4.62645,5.75855 c -0.70403,2.12157 -1.70977,4.04108 -2.8161,5.9606 -1.2069,1.91952 -2.51438,3.63698 -4.023,5.25341 -3.11782,3.23288 -6.93967,5.75856 -11.06324,7.37499 -4.12358,1.61644 -8.64945,2.32363 -12.97417,2.12157 -4.42531,-0.20206 -8.64945,-1.31335 -12.57188,-3.13184 -3.92242,-1.81849 -7.54312,-4.34417 -10.45979,-7.37499 -2.91667,-3.13184 -5.33047,-6.76882 -6.8391,-10.70888 -1.50862,-3.94006 -2.41379,-8.1832 -2.41379,-12.42634 0,-4.24314 0.70402,-8.48629 2.21264,-12.52738 0.20115,-0.50513 0.4023,-1.01026 0.60345,-1.51541 0.20115,-0.50513 0.4023,-1.01026 0.70403,-1.41437 0.20115,-0.50514 0.50287,-1.01028 0.70402,-1.41438 0.30172,-0.50514 0.50287,-0.90925 0.8046,-1.41438 1.10633,-1.81849 2.4138,-3.63699 3.82185,-5.25342 2.8161,-3.3339 6.4368,-6.162657 10.45979,-8.082174 4.02301,-1.919517 8.54887,-2.929789 13.07475,-3.030816 4.52588,0 9.05175,1.010273 13.07475,2.929789 4.02299,1.919516 7.6437,4.748281 10.45979,8.082171 5.73278,6.6678 9.05174,15.05305 9.35347,23.64037 -0.10058,4.34417 -0.70402,8.78936 -2.11207,12.93148 z"
   style="stroke-width:1.00801" />
	</g>
	<path
   id="path887"
   d="m 465.5,118.3 15.5,-10.2 7.4,-16.7 -10.2,13.5 -11.3,1.3 -12.2,-10.5 c 0,-0.1 6.38361,7.02322 10.8,22.6 z"
   class="st4"
   sodipodi:nodetypes="ccccccc" />
	<path
   id="path889"
   d="m 376.3,97.8 -13.1,10.5 -5.9,-2 -11,-7.9 9.5,14.6 11.1,6.6 c 0,-0.1 1.6,-11.8 9.4,-21.8 z"
   class="st4" />
	<path
   id="path891"
   d="m 445.9,167.9 c 6.4,-4.4 12.1,-12.7 12.1,-12.7 l -2.7,23.8 -11.8,17.3 2.03775,11.04538 L 435.9,196.2 l 4,-21.4 z"
   class="st4"
   sodipodi:nodetypes="cccccccc" />
	<polygon
   id="polygon893"
   points="465.8,201.6 468.8,201.3 473.5,206.8 463,208.3 445.5,207.3 462.6,205.3 "
   class="st4" />
	<polygon
   id="polygon895"
   points="361.6,207.3 367.7,209.2 386.6,209.2 369.8,207 368.1,204.7 364.8,203.4 "
   class="st4" />
	<polygon
   id="polygon897"
   points="384.7,167.6 388.5,176.5 395.7,188.6 395.1,198.1 389.4,188 376,179.2 372.2,155.4 "
   class="st4" />
	<path
   id="path899"
   d="m 424.2,78.4 -4.8,-8.7 v -9.3 l -8.6,-11.8 19.1,10.7 8.7,23.6 c -0.1,0 -6.4,-3.2 -14.4,-4.5 z"
   class="st4" />
	<polygon
   id="polygon901"
   points="395.2,76.2 396.7,74.6 405.4,69.5 398.3,76.5 396.9,81.7 "
   class="st4" />
	<g
   id="g905">
		<path
   id="path903"
   d="m 432.7,110.9 -0.1,0.5 -1.1,5.5 -0.1,0.5 h -10 l -5.8,28.9 h -0.5 -7.3 -0.5 l 5.8,-28.9 h -10 l 0.1,-0.5 1.1,-5.5 0.1,-0.5 h 28.3 m 6.7,-5.6 h -6.8 -28.3 -4.5 l -0.9,4.5 -0.1,0.5 -1.1,5.5 -0.1,0.5 -1.3,6.6 h 6.8 3.3 l -4.5,22.3 -1.3,6.6 h 6.8 0.5 7.3 0.5 4.5 l 0.9,-4.5 4.9,-24.5 h 5.5 4.5 l 0.9,-4.5 0.1,-0.5 1.1,-5.5 0.1,-0.5 z"
   class="st7" />
	</g>
	<polygon
   id="polygon907"
   points="425.9,122.9 420.1,151.8 400.5,151.8 407.3,146.3 415.6,146.3 421.3,117.4 431.4,117.4 432.7,110.9 439.4,105.3 435.9,122.9 "
   class="st8" />
</g><ellipse
   ry="316.93048"
   rx="318.26761"
   cy="347.56372"
   cx="341.57352"
   id="path998"
   style="fill:none;stroke:#000000;stroke-width:24.9;stroke-miterlimit:4;stroke-dasharray:none;stroke-opacity:1" /><ellipse
   style="fill:none;stroke:#e94e1b;stroke-width:23.9386;stroke-miterlimit:4;stroke-dasharray:none;stroke-opacity:1"
   id="path998-3"
   cx="340.15747"
   cy="340.15747"
   rx="326.22345"
   ry="325.19415" /><g
   id="g226"><path
     sodipodi:nodetypes="ccccc"
     d="m 191.89512,518.46219 296.52472,0.19197 -18.99361,33.84491 -259.09771,-0.0254 z"
     style="fill:#000000;stroke-width:1.7327"
     id="rect120" /><g
     style="font-style:normal;font-weight:normal;font-size:18.1234px;line-height:1.25;font-family:sans-serif;writing-mode:lr-tb;direction:ltr;fill:#000000;fill-opacity:1;stroke:none;stroke-width:1.69906"
     id="text1577"
     transform="matrix(0.99443362,0,0,1.0055975,-1.4137418,0)"
     aria-label="THORIGNE FOUILLARD"><path
       id="path281"
       style="font-style:normal;font-variant:normal;font-weight:normal;font-stretch:normal;font-size:18.1234px;font-family:'Arial Black';-inkscape-font-specification:'Arial Black, ';writing-mode:lr-tb;direction:ltr;fill:#cccccc;stroke-width:1.69906"
       d="m 229.22965,528.42229 h 12.18551 v 3.20345 h -4.08838 v 9.76965 h -4.00874 v -9.76965 h -4.08839 z" /><path
       id="path283"
       style="font-style:normal;font-variant:normal;font-weight:normal;font-stretch:normal;font-size:18.1234px;font-family:'Arial Black';-inkscape-font-specification:'Arial Black, ';writing-mode:lr-tb;direction:ltr;fill:#cccccc;stroke-width:1.69906"
       d="m 243.25582,528.42229 h 4.00874 v 4.5397 h 4.38041 v -4.5397 h 4.02644 v 12.9731 h -4.02644 v -5.24765 h -4.38041 v 5.24765 h -4.00874 z" /><path
       id="path285"
       style="font-style:normal;font-variant:normal;font-weight:normal;font-stretch:normal;font-size:18.1234px;font-family:'Arial Black';-inkscape-font-specification:'Arial Black, ';writing-mode:lr-tb;direction:ltr;fill:#cccccc;stroke-width:1.69906"
       d="m 257.84834,534.91769 q 0,-3.17691 1.76987,-4.94677 1.76986,-1.76986 4.92907,-1.76986 3.23884,0 4.99101,1.74331 1.75216,1.73447 1.75216,4.86712 0,2.27428 -0.76989,3.73442 -0.76104,1.45128 -2.21233,2.26542 -1.44243,0.80529 -3.60167,0.80529 -2.19463,0 -3.63707,-0.6991 -1.43359,-0.69909 -2.32737,-2.21233 -0.89378,-1.51323 -0.89378,-3.7875 z m 4.00874,0.0177 q 0,1.96455 0.72565,2.82294 0.73449,0.85838 1.99109,0.85838 1.292,0 1.99995,-0.84068 0.70794,-0.84069 0.70794,-3.01762 0,-1.83181 -0.74334,-2.67249 -0.73449,-0.84954 -1.99994,-0.84954 -1.21236,0 -1.94685,0.85838 -0.7345,0.85839 -0.7345,2.84063 z" /><path
       id="path287"
       style="font-style:normal;font-variant:normal;font-weight:normal;font-stretch:normal;font-size:18.1234px;font-family:'Arial Black';-inkscape-font-specification:'Arial Black, ';writing-mode:lr-tb;direction:ltr;fill:#cccccc;stroke-width:1.69906"
       d="m 273.52048,541.39539 v -12.9731 h 6.68124 q 1.85835,0 2.84063,0.31857 0.98227,0.31858 1.58402,1.18581 0.60176,0.85839 0.60176,2.09729 0,1.07962 -0.46017,1.86721 -0.46016,0.77874 -1.26545,1.26545 -0.51326,0.30972 -1.40704,0.51326 0.71679,0.23893 1.04422,0.47786 0.22123,0.15929 0.63715,0.6814 0.42477,0.52211 0.56636,0.80529 l 1.938,3.76096 h -4.53085 l -2.14154,-3.9645 q -0.40707,-0.76989 -0.72564,-0.99997 -0.43362,-0.30088 -0.98228,-0.30088 h -0.35397 v 5.26535 z m 4.02644,-7.71661 h 1.69022 q 0.27433,0 1.06192,-0.17698 0.39822,-0.0797 0.646,-0.40707 0.25663,-0.32743 0.25663,-0.75219 0,-0.62831 -0.39822,-0.96458 -0.39822,-0.33627 -1.49554,-0.33627 h -1.76101 z" /><path
       id="path289"
       style="font-style:normal;font-variant:normal;font-weight:normal;font-stretch:normal;font-size:18.1234px;font-family:'Arial Black';-inkscape-font-specification:'Arial Black, ';writing-mode:lr-tb;direction:ltr;fill:#cccccc;stroke-width:1.69906"
       d="m 287.71478,528.42229 h 4.01759 v 12.9731 h -4.01759 z" /><path
       id="path291"
       style="font-style:normal;font-variant:normal;font-weight:normal;font-stretch:normal;font-size:18.1234px;font-family:'Arial Black';-inkscape-font-specification:'Arial Black, ';writing-mode:lr-tb;direction:ltr;fill:#cccccc;stroke-width:1.69906"
       d="m 301.1215,536.6964 v -2.69904 h 6.19452 v 5.53082 q -1.77871,1.21236 -3.15036,1.65482 -1.36279,0.43362 -3.23885,0.43362 -2.30967,0 -3.7698,-0.78759 -1.45129,-0.78759 -2.25658,-2.34507 -0.79644,-1.55748 -0.79644,-3.57512 0,-2.12384 0.87608,-3.69017 0.87609,-1.57518 2.56631,-2.38931 1.31854,-0.6283 3.54857,-0.6283 2.15039,0 3.2123,0.38937 1.07077,0.38937 1.76987,1.21235 0.70794,0.81414 1.06191,2.07074 l -3.86715,0.69025 q -0.23893,-0.7345 -0.81413,-1.12387 -0.56636,-0.38936 -1.45129,-0.38936 -1.31855,0 -2.10614,0.92032 -0.77874,0.91148 -0.77874,2.89373 0,2.10614 0.78759,3.00877 0.79644,0.90263 2.21233,0.90263 0.67255,0 1.28315,-0.19469 0.6106,-0.19468 1.39819,-0.6637 v -1.2212 z" /><path
       id="path293"
       style="font-style:normal;font-variant:normal;font-weight:normal;font-stretch:normal;font-size:18.1234px;font-family:'Arial Black';-inkscape-font-specification:'Arial Black, ';writing-mode:lr-tb;direction:ltr;fill:#cccccc;stroke-width:1.69906"
       d="m 309.74073,528.42229 h 3.74326 l 4.88483,7.17679 v -7.17679 h 3.77865 v 12.9731 h -3.77865 l -4.85828,-7.1237 v 7.1237 h -3.76981 z" /><path
       id="path295"
       style="font-style:normal;font-variant:normal;font-weight:normal;font-stretch:normal;font-size:18.1234px;font-family:'Arial Black';-inkscape-font-specification:'Arial Black, ';writing-mode:lr-tb;direction:ltr;fill:#cccccc;stroke-width:1.69906"
       d="m 324.81997,528.42229 h 10.74307 v 2.76983 h -6.72548 v 2.06189 h 6.23876 v 2.64595 h -6.23876 v 2.55745 h 6.92016 v 2.93798 h -10.93775 z" /><path
       id="path297"
       style="font-style:normal;font-variant:normal;font-weight:normal;font-stretch:normal;font-size:18.1234px;font-family:'Arial Black';-inkscape-font-specification:'Arial Black, ';writing-mode:lr-tb;direction:ltr;fill:#cccccc;stroke-width:1.69906"
       d="m 343.99644,528.42229 h 9.91123 v 2.78753 h -5.88479 v 2.26543 h 5.02641 v 2.6194 h -5.02641 v 5.30074 h -4.02644 z" /><path
       id="path299"
       style="font-style:normal;font-variant:normal;font-weight:normal;font-stretch:normal;font-size:18.1234px;font-family:'Arial Black';-inkscape-font-specification:'Arial Black, ';writing-mode:lr-tb;direction:ltr;fill:#cccccc;stroke-width:1.69906"
       d="m 355.5802,534.91769 q 0,-3.17691 1.76986,-4.94677 1.76986,-1.76986 4.92907,-1.76986 3.23885,0 4.99101,1.74331 1.75217,1.73447 1.75217,4.86712 0,2.27428 -0.76989,3.73442 -0.76104,1.45128 -2.21233,2.26542 -1.44244,0.80529 -3.60167,0.80529 -2.19463,0 -3.63707,-0.6991 -1.43359,-0.69909 -2.32737,-2.21233 -0.89378,-1.51323 -0.89378,-3.7875 z m 4.00874,0.0177 q 0,1.96455 0.72564,2.82294 0.73449,0.85838 1.9911,0.85838 1.292,0 1.99994,-0.84068 0.70795,-0.84069 0.70795,-3.01762 0,-1.83181 -0.74335,-2.67249 -0.73449,-0.84954 -1.99994,-0.84954 -1.21236,0 -1.94685,0.85838 -0.73449,0.85839 -0.73449,2.84063 z" /><path
       id="path301"
       style="font-style:normal;font-variant:normal;font-weight:normal;font-stretch:normal;font-size:18.1234px;font-family:'Arial Black';-inkscape-font-specification:'Arial Black, ';writing-mode:lr-tb;direction:ltr;fill:#cccccc;stroke-width:1.69906"
       d="m 379.64149,528.42229 h 3.99989 v 7.7343 q 0,1.15041 -0.36282,2.17693 -0.35398,1.01767 -1.12387,1.78756 -0.76104,0.76105 -1.60172,1.07077 -1.16811,0.43362 -2.80524,0.43362 -0.94687,0 -2.07074,-0.13274 -1.11501,-0.13274 -1.8672,-0.52211 -0.75219,-0.39822 -1.3805,-1.12386 -0.61945,-0.72565 -0.84953,-1.49554 -0.37167,-1.2389 -0.37167,-2.19463 v -7.7343 h 3.99989 v 7.92014 q 0,1.06191 0.58405,1.66367 0.59291,0.5929 1.63713,0.5929 1.03537,0 1.61942,-0.58405 0.59291,-0.59291 0.59291,-1.67252 z" /><path
       id="path303"
       style="font-style:normal;font-variant:normal;font-weight:normal;font-stretch:normal;font-size:18.1234px;font-family:'Arial Black';-inkscape-font-specification:'Arial Black, ';writing-mode:lr-tb;direction:ltr;fill:#cccccc;stroke-width:1.69906"
       d="m 386.47315,528.42229 h 4.01759 v 12.9731 h -4.01759 z" /><path
       id="path305"
       style="font-style:normal;font-variant:normal;font-weight:normal;font-stretch:normal;font-size:18.1234px;font-family:'Arial Black';-inkscape-font-specification:'Arial Black, ';writing-mode:lr-tb;direction:ltr;fill:#cccccc;stroke-width:1.69906"
       d="m 393.35793,528.42229 h 4.00874 v 9.77849 h 6.25647 v 3.19461 h -10.26521 z" /><path
       id="path307"
       style="font-style:normal;font-variant:normal;font-weight:normal;font-stretch:normal;font-size:18.1234px;font-family:'Arial Black';-inkscape-font-specification:'Arial Black, ';writing-mode:lr-tb;direction:ltr;fill:#cccccc;stroke-width:1.69906"
       d="m 405.4638,528.42229 h 4.00874 v 9.77849 h 6.25646 v 3.19461 h -10.2652 z" /><path
       id="path309"
       style="font-style:normal;font-variant:normal;font-weight:normal;font-stretch:normal;font-size:18.1234px;font-family:'Arial Black';-inkscape-font-specification:'Arial Black, ';writing-mode:lr-tb;direction:ltr;fill:#cccccc;stroke-width:1.69906"
       d="m 425.55174,539.25385 h -4.56624 l -0.6283,2.14154 h -4.09724 l 4.87598,-12.9731 h 4.37156 l 4.87597,12.9731 h -4.19457 z m -0.84068,-2.80523 -1.43359,-4.66359 -1.42474,4.66359 z" /><path
       id="path311"
       style="font-style:normal;font-variant:normal;font-weight:normal;font-stretch:normal;font-size:18.1234px;font-family:'Arial Black';-inkscape-font-specification:'Arial Black, ';writing-mode:lr-tb;direction:ltr;fill:#cccccc;stroke-width:1.69906"
       d="m 431.71086,541.39539 v -12.9731 h 6.68124 q 1.85835,0 2.84063,0.31857 0.98227,0.31858 1.58402,1.18581 0.60176,0.85839 0.60176,2.09729 0,1.07962 -0.46017,1.86721 -0.46016,0.77874 -1.26545,1.26545 -0.51326,0.30972 -1.40704,0.51326 0.71679,0.23893 1.04422,0.47786 0.22123,0.15929 0.63715,0.6814 0.42477,0.52211 0.56636,0.80529 l 1.938,3.76096 h -4.53085 l -2.14154,-3.9645 q -0.40707,-0.76989 -0.72564,-0.99997 -0.43362,-0.30088 -0.98228,-0.30088 h -0.35397 v 5.26535 z m 4.02644,-7.71661 h 1.69022 q 0.27433,0 1.06192,-0.17698 0.39822,-0.0797 0.646,-0.40707 0.25663,-0.32743 0.25663,-0.75219 0,-0.62831 -0.39822,-0.96458 -0.39822,-0.33627 -1.49554,-0.33627 h -1.76101 z" /><path
       id="path313"
       style="font-style:normal;font-variant:normal;font-weight:normal;font-stretch:normal;font-size:18.1234px;font-family:'Arial Black';-inkscape-font-specification:'Arial Black, ';writing-mode:lr-tb;direction:ltr;fill:#cccccc;stroke-width:1.69906"
       d="m 445.79898,528.42229 h 5.95559 q 1.76101,0 2.84063,0.47786 1.08847,0.47786 1.79641,1.37165 0.70795,0.89378 1.02652,2.07958 0.31858,1.18581 0.31858,2.51321 0,2.07959 -0.47786,3.23 -0.46902,1.14156 -1.3097,1.9203 -0.84069,0.76989 -1.80526,1.02652 -1.31855,0.35398 -2.38932,0.35398 h -5.95559 z m 4.00874,2.93797 v 7.0883 H 450.79 q 1.2566,0 1.78756,-0.27433 0.53096,-0.28317 0.83183,-0.97342 0.30088,-0.6991 0.30088,-2.25658 0,-2.06189 -0.67255,-2.82293 -0.67255,-0.76104 -2.23003,-0.76104 z" /></g><path
     transform="matrix(1.7085739,0,0,1.7085739,-370.4384,53.792495)"
     class="st0"
     d="m 297,272.8 c 4,-14.5 8,-28.9 12,-43.4 h -5.4 c -4.1,-6.5 -8,-13.1 -11.8,-19.8 h 50.8 c -1.3,6.6 -2.5,13.2 -3.8,19.8 h -9.1 c -3.1,14.5 -6.3,28.9 -9.4,43.4 z"
     clip-path="url(#SVGID_2_)"
     id="path785" /><path
     transform="matrix(1.7085739,0,0,1.7085739,-370.4384,53.792495)"
     class="st0"
     d="m 321.6,261.7 c 3.8,-17.4 7.7,-34.7 11.5,-52.1 h 37.2 c -1.9,17.4 -3.8,34.7 -5.7,52.1 z"
     clip-path="url(#SVGID_2_)"
     id="path787" /><path
     transform="matrix(1.7085739,0,0,1.7085739,-370.4384,53.792495)"
     class="st0"
     d="m 363.6,261.7 c -3.3,-4.1 -4.9,-6.1 -8.1,-10.2 1.4,-10.6 2.9,-21.1 4.3,-31.7 3.9,-4.1 5.9,-6.1 9.6,-10.2 h 21.5 c 3.1,4.1 4.7,6.1 7.9,10.2 -0.3,10.6 -0.5,21.1 -0.8,31.7 -3.8,4.1 -5.7,6.1 -9.7,10.2 z"
     clip-path="url(#SVGID_2_)"
     id="path789" /><path
     transform="matrix(1.7085739,0,0,1.7085739,-370.4384,53.792495)"
     class="st0"
     d="m 386.1,261.7 c 0.9,-15.9 1.7,-31.8 2.6,-47.8 0.9,-1.7 1.3,-2.6 2.2,-4.3 h 27.7 c 3.3,4 5,6 8.5,10 0.4,6.5 0.6,9.8 0.9,16.3 0.3,1.7 0.5,2.6 0.8,4.3 1.1,7.2 2.2,14.3 3.3,21.5 z"
     clip-path="url(#SVGID_2_)"
     id="path791" /><path
     transform="matrix(1.7085739,0,0,1.7085739,-370.4384,53.792495)"
     class="st0"
     d="m 426.9,261.7 c -0.5,-10.8 -1.1,-21.5 -1.6,-32.3 h -9.1 c -0.2,-6.6 -0.3,-13.2 -0.5,-19.8 h 36.8 c 0.9,6.6 1.8,13.2 2.6,19.8 H 446 c 1.2,10.8 2.3,21.5 3.5,32.3 z"
     clip-path="url(#SVGID_2_)"
     id="path793" /><path
     transform="matrix(1.7085739,0,0,1.7085739,-370.4384,53.792495)"
     class="st0"
     d="m 447.2,261.7 c -1.8,-17.4 -3.5,-34.7 -5.3,-52.1 h 19.6 c 1.7,10.8 3.4,21.5 5.2,32.3 h 13.4 c 1.3,6.6 2.6,13.2 3.9,19.8 z"
     clip-path="url(#SVGID_2_)"
     id="path795" /><path
     transform="matrix(1.7867965,0,0,1.7085739,-410.22242,53.792495)"
     class="st0"
     d="M 469.8,261.7 C 467,244.3 464.3,227 461.5,209.6 h 33.4 c 1.4,5.3 2.1,8 3.4,13.3 0.6,2.5 1,3.8 1.6,6.3 h -1.3 c 1.3,5.2 2,7.8 3.3,13 h 1.6 c 1.7,6.5 3.4,13 5.1,19.5 z"
     clip-path="url(#SVGID_2_)"
     id="path797" /><path
     transform="matrix(1.7085739,0,0,1.7085739,-370.4384,53.792495)"
     class="st0"
     d="m 471.6,272.8 c -1,-6.4 -2,-12.8 -3.1,-19.2 h 34.6 c -0.8,-3.3 -1.2,-4.9 -2,-8.2 v 0 c -4.1,-3.6 -6.1,-5.4 -10,-8.9 -1.6,-6.9 -2.4,-10.3 -3.9,-17.2 2.3,-3.9 3.4,-5.8 5.6,-9.7 H 535 c -3.2,6.5 -6.5,12.9 -10.1,19.2 h -1.7 c 2.8,2.2 4.3,3.4 7.1,5.6 3.2,9.6 6.5,19.1 9.7,28.7 -2.3,3.9 -3.5,5.8 -5.9,9.7 z"
     clip-path="url(#SVGID_2_)"
     id="path799" /><path
     transform="matrix(1.7085739,0,0,1.7085739,-370.34886,53.448406)"
     class="st0"
     d="m 313.6,253.1 c 3.1,0 4.7,0 7.8,0 12.3,-0.1 24.7,-0.1 37,-0.2 2.8,0 4.3,0 7.1,0 -0.7,6.6 -1.4,13.2 -2,19.8 -18.2,0.1 -36.4,0.2 -54.5,0.3 1.4,-6.7 3,-13.3 4.6,-19.9"
     clip-path="url(#SVGID_2_)"
     id="path801" /><path
     transform="matrix(1.7085739,0,0,1.7085739,-370.4384,53.792495)"
     class="st0"
     d="m 365,278.5 c -2.5,-2.3 -3.8,-3.5 -6.3,-5.8 0.8,-6.6 1.2,-9.9 2,-16.6 1.9,-1.5 2.9,-2.3 4.8,-3.9 H 383 c 1.6,1.5 2.5,2.3 4.1,3.9 -0.4,6.6 -0.5,9.9 -0.9,16.6 -2.9,2.3 -4.3,3.5 -7.3,5.8 z"
     clip-path="url(#SVGID_2_)"
     id="path803" /><path
     transform="matrix(1.7085739,0,0,1.7085739,-370.4384,53.792495)"
     class="st0"
     d="m 378.7,278.5 c -1.8,-1.5 -2.6,-2.3 -4.3,-3.9 0.5,-6.2 1,-12.3 1.5,-18.5 1.9,-1.5 2.8,-2.3 4.7,-3.9 h 8.9 c 1.7,1.5 2.5,2.3 4.2,3.9 -0.1,2.9 -0.2,4.4 -0.3,7.3 h 1.7 c 1.7,1.6 2.6,2.4 4.3,4 -0.1,2.9 -0.1,4.3 -0.1,7.2 -1.9,1.5 -2.8,2.3 -4.7,3.9 z"
     clip-path="url(#SVGID_2_)"
     id="path805" /><path
     transform="matrix(1.7085739,0,0,1.7085739,-370.4384,53.792495)"
     class="st0"
     d="m 392.1,278.5 c -1.9,-1.5 -2.8,-2.3 -4.6,-3.8 0.1,-3 0.2,-4.5 0.4,-7.5 -1.6,-1.5 -2.5,-2.3 -4.1,-3.9 0.2,-2.9 0.3,-4.3 0.4,-7.2 1.9,-1.5 2.8,-2.3 4.6,-3.9 H 406 c 1.7,1.5 2.6,2.3 4.4,3.9 0,2.9 0,4.3 0.1,7.2 -1.7,1.5 -2.6,2.3 -4.3,3.9 0,3 0,4.5 0,7.5 -1.9,1.5 -2.9,2.3 -4.8,3.8 z"
     clip-path="url(#SVGID_2_)"
     id="path807" /><path
     transform="matrix(1.7085739,0,0,1.7085739,-370.4384,53.792495)"
     class="st0"
     d="m 401.4,278.5 c -1.8,-1.5 -2.7,-2.3 -4.5,-3.8 0.2,-6.2 0.3,-12.3 0.5,-18.5 1.8,-1.5 2.7,-2.3 4.4,-3.9 h 8.8 c 1.7,1.5 2.6,2.3 4.4,3.9 0.1,6.2 0.2,12.3 0.4,18.5 -1.8,1.5 -2.7,2.3 -4.6,3.8 z"
     clip-path="url(#SVGID_2_)"
     id="path809" /><path
     transform="matrix(1.7085739,0,0,1.7085739,-370.4384,53.792495)"
     class="st0"
     d="m 417.1,278.5 h -9 c -1.9,-1.5 -2.8,-2.3 -4.6,-3.8 0.1,-6.2 0.1,-12.3 0.2,-18.5 1.8,-1.5 2.6,-2.3 4.4,-3.9 h 10.4 c 0.5,0.3 0.7,0.5 1.2,0.9 0.9,-0.5 2.1,-0.9 3.6,-0.9 h 8.1 c 0,0 0.1,0.1 0.1,0.1 h 4 c 0.6,7.8 1.2,15.5 1.8,23.3 -2.3,1.1 -3.4,1.7 -5.7,2.8 h -8.2"
     clip-path="url(#SVGID_2_)"
     id="path811" /><path
     transform="matrix(1.7085739,0,0,1.7085739,-370.4384,53.792495)"
     class="st0"
     d="m 435.9,278.5 h -6.2 c -2.3,-1.8 -3.5,-2.8 -5.8,-4.6 1.8,-6.1 3.5,-12.3 5,-18.5 1.3,-1.2 2,-1.9 3.3,-3.1 h 7.7 c 4.5,0 6.7,3.2 7.7,5.2 0.3,0.6 0.7,1.6 1.2,2.8 1,2.3 2.5,5.7 4.4,10.3 0.6,1.4 0.9,2.1 1.5,3.5 -1.9,1.8 -2.9,2.7 -4.9,4.5 h -8.7"
     clip-path="url(#SVGID_2_)"
     id="path813" /><path
     transform="matrix(1.7085739,0,0,1.7085739,-370.4384,53.792495)"
     class="st0"
     d="m 448,278.5 c -2.1,-1.5 -3.1,-2.3 -5.1,-3.8 -0.3,-3 -0.4,-4.5 -0.7,-7.5 -1.9,-1.5 -2.8,-2.3 -4.6,-3.9 -0.2,-2.9 -0.3,-4.3 -0.6,-7.2 1.6,-1.5 2.5,-2.3 4.1,-3.9 h 17.2 c 1.9,1.5 2.9,2.3 4.9,3.9 0.4,2.9 0.6,4.3 1,7.2 -1.5,1.5 -2.2,2.3 -3.8,3.9 0.4,3 0.6,4.5 1,7.5 -1.7,1.5 -2.5,2.3 -4.3,3.8 z"
     clip-path="url(#SVGID_2_)"
     id="path815" /><path
     transform="matrix(1.7085739,0,0,1.7085739,-370.4384,53.792495)"
     class="st0"
     d="m 457.2,278.5 c -2.1,-1.5 -3.1,-2.3 -5.1,-3.9 -0.7,-6.2 -1.4,-12.3 -2.1,-18.5 1.6,-1.5 2.4,-2.3 3.9,-3.9 h 15.5 c 2,1.5 3,2.3 5,3.9 0.5,2.9 0.7,4.3 1.2,7.1 -0.2,0.2 -0.3,0.4 -0.5,0.6 0.2,1.2 0.3,1.8 0.5,2.9 0.3,0.3 0.5,0.4 0.9,0.7 0.5,2.9 0.8,4.3 1.3,7.2 -1.6,1.5 -2.4,2.3 -4,3.9 z"
     clip-path="url(#SVGID_2_)"
     id="path817" /><path
     transform="matrix(1.7085739,0,0,1.7085739,-370.4384,53.792495)"
     class="st1"
     d="m 303.8,215.9 h 6.9 23.8 0.4 c -0.6,2.7 -0.8,4 -1.4,6.7 0,0.2 -0.1,0.3 -0.1,0.6 h -8.9 c -3.4,14.5 -6.8,28.9 -10.2,43.4 h -0.5 -7.2 -0.6 c 3.7,-14.5 7.4,-28.9 11.1,-43.4 h -8.9 c -1.7,-3 -2.6,-4.4 -4.4,-7.3"
     clip-path="url(#SVGID_2_)"
     id="path819" /><path
     transform="matrix(1.7085739,0,0,1.7085739,-370.4384,53.792495)"
     class="st1"
     d="m 338.5,215.9 h 6.3 0.5 c -1.2,6.5 -1.8,9.8 -2.9,16.3 h 11.2 c 1,-6.5 1.5,-9.8 2.4,-16.3 h 0.5 6.3 0.4 c -1.7,13.2 -3.4,26.4 -5.1,39.5 h -0.5 -7.1 -0.5 c 0.9,-6.2 1.4,-9.3 2.3,-15.5 h -11.4 c -1.1,6.2 -1.7,9.3 -2.8,15.5 h -0.5 -7.1 -0.5 c 2.7,-13.2 5.3,-26.4 8,-39.5 z"
     clip-path="url(#SVGID_2_)"
     id="path821" /><path
     transform="matrix(1.7085739,0,0,1.7085739,-370.4384,53.792495)"
     class="st1"
     d="m 373.3,225 c -0.7,7.2 -1.4,14.4 -2.1,21.6 0.7,0.9 1,1.3 1.7,2.1 h 7.9 c 0.9,-0.9 1.4,-1.3 2.3,-2.1 0.5,-7.2 0.9,-14.4 1.4,-21.6 -0.7,-0.9 -1,-1.3 -1.6,-2.1 h -7.6 c -0.8,0.8 -1.2,1.2 -2,2.1 m -1.5,-9.1 h 15.7 c 1.9,2.5 2.8,3.7 4.8,6.1 -0.4,9.1 -0.8,18.2 -1.2,27.2 -2.3,2.5 -3.5,3.7 -5.9,6.1 h -17.5 c -2,-2.5 -3,-3.7 -4.9,-6.1 1.1,-9.1 2.1,-18.2 3.2,-27.2 2.4,-2.4 3.5,-3.6 5.8,-6.1"
     clip-path="url(#SVGID_2_)"
     id="path823" /><path
     transform="matrix(1.7085739,0,0,1.7085739,-370.4384,53.792495)"
     class="st1"
     d="m 402.3,222.3 c -0.1,4.6 -0.1,6.9 -0.2,11.5 h 9.6 c 0.7,-0.9 1.1,-1.3 1.8,-2.1 0,-2.9 -0.1,-4.3 -0.1,-7.2 -0.7,-0.9 -1.1,-1.3 -1.8,-2.1 h -9.3 z m 13.4,-6.4 c 2,2.4 3,3.5 5,5.9 0.2,4.8 0.3,7.2 0.5,12 -1.6,2 -2.4,3.1 -4,5.1 2,6.6 3.1,9.9 5.3,16.5 h -0.2 -8 c -1.9,-6.2 -2.7,-9.3 -4.5,-15.5 h -7.7 c -0.1,6.2 -0.1,9.3 -0.2,15.5 h -0.5 -7.1 -0.7 c 0.5,-13.1 0.9,-26.2 1.4,-39.3 0.1,-0.1 0.1,-0.2 0.2,-0.3 h 20.5 z"
     clip-path="url(#SVGID_2_)"
     id="path825" /><path
     transform="matrix(1.7085739,0,0,1.7085739,-370.4384,53.792495)"
     class="st1"
     d="m 422.8,215.9 h 23.8 0.4 c 0.3,2.7 0.5,4 0.8,6.7 0,0.2 0,0.3 0.1,0.6 H 439 c 1,10.8 1.9,21.5 2.9,32.3 h -0.5 -7 -0.5 c -0.7,-10.8 -1.5,-21.5 -2.2,-32.3 h -8.9 c 0,-0.2 0,-0.3 0,-0.6 -0.1,-2.7 -0.2,-4 -0.3,-6.7 z"
     clip-path="url(#SVGID_2_)"
     id="path827" /><path
     transform="matrix(1.7085739,0,0,1.7085739,-370.4384,53.792495)"
     class="st1"
     d="m 449.4,215.9 h 6.3 0.4 c 1.5,10.8 3,21.5 4.6,32.3 h 11.1 c 0,0.2 0.1,0.3 0.1,0.6 0.4,2.5 0.6,3.7 1,6.1 0,0.2 0.1,0.3 0.1,0.5 h -18.9 -0.5 C 452,242.2 450.4,229 448.8,215.9 Z"
     clip-path="url(#SVGID_2_)"
     id="path829" /><path
     sodipodi:nodetypes="cccccccccccccccccccccc"
     transform="matrix(1.7085739,0,0,1.7085739,-370.4384,53.792495)"
     class="st1"
     d="m 469.3,215.9 h 20.3 0.4 c 0.6,2.6 0.9,3.8 1.5,6.4 0.1,0.2 0.1,0.3 0.1,0.6 h -14.3 c 0.7,3.6 1.1,5.4 1.8,9.1 h 12.8 0.5 c 0.7,2.8 1,4.2 1.6,7 h -0.5 -13 c 0.8,3.8 1.1,5.8 1.9,9.6 h 15.5 c 0.1,0.2 0.1,0.3 0.1,0.6 0.6,2.4 0.8,3.5 1.4,5.9 0.1,0.2 0.1,0.3 0.1,0.5 h -23.4 -0.5 c -2.4,-13.2 -4.7,-26.4 -7.1,-39.5 l -0.0367,-0.19639 z"
     clip-path="url(#SVGID_2_)"
     id="path831" /><path
     transform="matrix(1.7085739,0,0,1.7085739,-370.4384,53.792495)"
     class="st1"
     d="m 519.8,222.5 h -16.6 c -0.4,0.6 -0.6,0.9 -1.1,1.5 0.7,2.6 1.1,4 1.8,6.6 0.6,0.4 0.8,0.6 1.4,1 H 518 c 2.5,2 3.8,3.1 6.4,5.1 2.6,8 5.1,16.1 7.7,24.1 -1.4,2.2 -2,3.4 -3.5,5.6 h -50.8 c -0.5,-2.7 -0.7,-4 -1.2,-6.6 h 45.5 c 0.4,-0.7 0.5,-1.1 0.9,-1.8 -1.8,-5.9 -3.5,-11.8 -5.3,-17.7 -0.6,-0.5 -0.9,-0.8 -1.5,-1.3 h -13.6 c -2.2,-1.9 -3.3,-2.9 -5.4,-4.8 -1.3,-5.1 -1.9,-7.7 -3.2,-12.8 1.3,-2.2 1.9,-3.4 3.2,-5.6 h 26.2 c -1.3,2.8 -2.1,4.1 -3.6,6.7"
     clip-path="url(#SVGID_2_)"
     id="path833" /><path
     transform="matrix(1.7085739,0,0,1.7085739,-370.4384,53.792495)"
     class="st1"
     d="m 317.7,266.6 c 0,-0.2 0.1,-0.3 0.1,-0.6 0.6,-2.7 0.9,-4 1.5,-6.7 0.3,0 0.4,0 0.7,0 12.3,-0.1 24.6,-0.1 36.9,-0.2 0.3,0 0.4,0 0.7,0 -0.3,2.7 -0.5,4 -0.8,6.7 0,0.2 0,0.3 -0.1,0.6 -13,0 -26,0.1 -39,0.2"
     clip-path="url(#SVGID_2_)"
     id="path835" /><path
     transform="matrix(1.7085739,0,0,1.7085739,-370.4384,53.792495)"
     class="st2"
     d="m 367.8,258.6 h 3.1 c 0.1,0.1 0.1,0.1 0.2,0.2 -0.4,4.1 -0.6,6.1 -1,10.2 0.3,0.3 0.5,0.5 0.9,0.8 h 3.4 c 0.4,-0.3 0.6,-0.5 1,-0.8 0.3,-4.1 0.5,-6.1 0.8,-10.2 0.1,-0.1 0.1,-0.1 0.2,-0.2 h 3.1 c 0.1,0.1 0.1,0.1 0.2,0.2 -0.3,4.5 -0.5,6.8 -0.8,11.4 -1.1,0.8 -1.6,1.3 -2.7,2.1 h -7.6 c -0.9,-0.8 -1.4,-1.3 -2.3,-2.1 0.5,-4.5 0.7,-6.8 1.2,-11.4 0.2,-0.1 0.2,-0.1 0.3,-0.2"
     clip-path="url(#SVGID_2_)"
     id="path837" /><path
     transform="matrix(1.7085739,0,0,1.7085739,-370.4384,53.792495)"
     class="st2"
     d="m 383.1,258.6 h 3.1 c 0.1,0.1 0.1,0.1 0.2,0.2 -0.2,4.4 -0.4,6.6 -0.6,11 h 6 c 0.1,0.1 0.1,0.1 0.2,0.2 0,0.8 0,1.3 -0.1,2.1 -0.1,0.1 -0.1,0.1 -0.2,0.2 h -9.4 c -0.1,-0.1 -0.1,-0.1 -0.2,-0.2 0.3,-5.3 0.5,-8 0.8,-13.3 0.1,-0.1 0.1,-0.1 0.2,-0.2"
     clip-path="url(#SVGID_2_)"
     id="path839" /><path
     transform="matrix(1.7085739,0,0,1.7085739,-370.4384,53.792495)"
     class="st2"
     d="m 390.7,258.6 h 11.5 c 0.1,0.1 0.1,0.1 0.2,0.2 0,0.8 0,1.3 0,2.1 -0.1,0.1 -0.1,0.1 -0.2,0.2 h -4 c -0.1,4.4 -0.2,6.6 -0.3,11 -0.1,0.1 -0.1,0.1 -0.2,0.2 h -3.2 c -0.1,-0.1 -0.1,-0.1 -0.2,-0.2 0.1,-4.4 0.2,-6.6 0.4,-11 h -4 c -0.1,-0.1 -0.1,-0.1 -0.2,-0.2 0,-0.8 0.1,-1.3 0.1,-2.1 -0.1,-0.1 0,-0.1 0.1,-0.2"
     clip-path="url(#SVGID_2_)"
     id="path841" /><path
     transform="matrix(1.7085739,0,0,1.7085739,-370.4384,53.792495)"
     class="st2"
     d="m 404.7,258.6 h 3 c 0.1,0.1 0.1,0.1 0.2,0.2 0,5.3 0,8 0,13.3 -0.1,0.1 -0.1,0.1 -0.2,0.2 h -3.1 c -0.1,-0.1 -0.1,-0.1 -0.2,-0.2 0,-5.3 0.1,-8 0.1,-13.3 0,-0.1 0.1,-0.1 0.2,-0.2"
     clip-path="url(#SVGID_2_)"
     id="path843" /><path
     transform="matrix(1.7085739,0,0,1.7085739,-370.4384,53.792495)"
     class="st2"
     d="m 411,258.6 h 5 c 0.2,0.1 1.5,3.7 4,10.7 0.2,0 0.9,-2.5 2.3,-7.4 0.7,-2.2 1.1,-3.3 1.2,-3.3 h 5 c 0,0 0.1,0.1 0.1,0.1 h 0.1 c 0.3,5.4 0.5,8 0.8,13.4 -0.1,0.1 -0.2,0.1 -0.3,0.2 h -3 c -0.1,-0.1 -0.1,-0.1 -0.2,-0.2 -0.2,-4.4 -0.3,-6.5 -0.5,-10.9 h -0.1 c -2,7.4 -3.3,11.1 -3.5,11.1 h -3.8 c -0.2,0 -1.7,-3.7 -4.2,-11.2 h -0.1 c 0.1,4.4 0.1,6.6 0.2,11 -0.1,0.1 -0.1,0.1 -0.2,0.2 h -2.7 c -0.1,-0.1 -0.1,-0.1 -0.2,-0.2 0,-5.3 -0.1,-8 -0.1,-13.3 0.1,-0.1 0.1,-0.1 0.2,-0.2"
     clip-path="url(#SVGID_2_)"
     id="path845" /><path
     transform="matrix(1.7085739,0,0,1.7085739,-370.4384,53.792495)"
     class="st2"
     d="m 438.2,260.6 c -0.5,2.5 -0.8,3.8 -1.3,6.3 h 3.8 c -0.9,-2.5 -1.4,-3.8 -2.3,-6.3 z m 2.4,-2 c 0.2,0 2,4.5 5.8,13.6 0,0 -0.1,0.1 -0.1,0.1 h -3.4 c -0.2,-0.1 -0.7,-1.1 -1.4,-3 h -5.2 c -0.3,2 -0.6,3 -0.8,3 h -3.1 c -0.1,-0.1 -0.1,-0.1 -0.2,-0.2 1.4,-5.3 2.1,-8 3.4,-13.4 0,0 0.1,-0.1 0.1,-0.1 z"
     clip-path="url(#SVGID_2_)"
     id="path847" /><path
     transform="matrix(1.7085739,0,0,1.7085739,-370.4384,53.792495)"
     class="st2"
     d="m 444.6,258.6 h 11.5 c 0.1,0.1 0.1,0.1 0.2,0.2 0.1,0.8 0.2,1.3 0.3,2.1 -0.1,0.1 -0.1,0.1 -0.2,0.2 h -4 c 0.5,4.4 0.8,6.6 1.3,11 -0.1,0.1 -0.1,0.1 -0.2,0.2 h -3.2 c -0.1,-0.1 -0.1,-0.1 -0.2,-0.2 -0.5,-4.4 -0.7,-6.6 -1.2,-11 h -4 c -0.1,-0.1 -0.1,-0.1 -0.2,-0.2 -0.1,-0.8 -0.1,-1.3 -0.2,-2.1 0,-0.1 0.1,-0.1 0.1,-0.2"
     clip-path="url(#SVGID_2_)"
     id="path849" /><path
     transform="matrix(1.7085739,0,0,1.7085739,-370.4384,53.792495)"
     class="st2"
     d="m 458.6,258.6 h 9.8 c 0.1,0.1 0.1,0.1 0.2,0.2 0.1,0.8 0.2,1.2 0.3,2 -0.1,0.1 -0.1,0.1 -0.2,0.2 h -6.6 c 0.2,1.3 0.3,1.9 0.4,3.1 h 6 c 0.1,0.1 0.1,0.1 0.2,0.2 0.1,0.8 0.2,1.2 0.3,2 -0.1,0.1 -0.1,0.1 -0.2,0.2 h -6 c 0.2,1.3 0.3,2 0.5,3.3 h 6.8 c 0.1,0.1 0.1,0.1 0.2,0.2 0.1,0.8 0.2,1.2 0.3,2 -0.1,0.1 -0.1,0.1 -0.2,0.2 h -10.3 c -0.1,-0.1 -0.1,-0.1 -0.2,-0.2 -0.7,-5.3 -1,-8 -1.7,-13.3 0.3,0 0.3,0 0.4,-0.1"
     clip-path="url(#SVGID_2_)"
     id="path851" /><path
     id="path267"
     d="m 176.7705,519.36144 16.55132,-0.0593"
     style="fill:none;stroke:#000000;stroke-width:1.05951px;stroke-linecap:butt;stroke-linejoin:miter;stroke-opacity:1" /></g></svg>
