<?xml version="1.0" encoding="UTF-8" standalone="no"?>
<svg
   xmlns:dc="http://purl.org/dc/elements/1.1/"
   xmlns:cc="http://creativecommons.org/ns#"
   xmlns:rdf="http://www.w3.org/1999/02/22-rdf-syntax-ns#"
   xmlns:svg="http://www.w3.org/2000/svg"
   xmlns="http://www.w3.org/2000/svg"
   xmlns:xlink="http://www.w3.org/1999/xlink"
   xmlns:sodipodi="http://sodipodi.sourceforge.net/DTD/sodipodi-0.dtd"
   xmlns:inkscape="http://www.inkscape.org/namespaces/inkscape"
   inkscape:version="1.0 (6e3e5246a0, 2020-05-07)"
   height="68.900002"
   width="248.2"
   sodipodi:docname="thortles_logo2_couleur (copy).svg"
   xml:space="preserve"
   viewBox="0 0 248.19999 68.900003"
   y="0px"
   x="0px"
   id="Calque_1"
   version="1.1"><metadata
   id="metadata85"><rdf:RDF><cc:Work
       rdf:about=""><dc:format>image/svg+xml</dc:format><dc:type
         rdf:resource="http://purl.org/dc/dcmitype/StillImage" /></cc:Work></rdf:RDF></metadata><defs
   id="defs83" /><sodipodi:namedview
   inkscape:current-layer="Calque_1"
   inkscape:window-maximized="0"
   inkscape:window-y="27"
   inkscape:window-x="52"
   inkscape:cy="88.049988"
   inkscape:cx="129.15001"
   inkscape:zoom="1.461448"
   showgrid="false"
   id="namedview81"
   inkscape:window-height="1010"
   inkscape:window-width="1556"
   inkscape:pageshadow="2"
   inkscape:pageopacity="0"
   guidetolerance="10"
   gridtolerance="10"
   objecttolerance="10"
   borderopacity="1"
   bordercolor="#666666"
   pagecolor="#ffffff" />
<style
   id="style2"
   type="text/css">
	.st0{clip-path:url(#SVGID_2_);}
	.st1{clip-path:url(#SVGID_2_);fill:#FFFFFF;}
	.st2{clip-path:url(#SVGID_2_);fill:#E94E1B;}
	.st3{fill:#C3C47E;}
	.st4{fill:#A7A86D;}
	.st5{fill:#FFFFFF;}
	.st6{fill:#EC6730;}
	.st7{fill:#E94E1B;}
	.st8{fill:#8D3208;}
	.st9{clip-path:url(#SVGID_4_);}
	.st10{clip-path:url(#SVGID_4_);fill:#FFFFFF;}
	.st11{clip-path:url(#SVGID_4_);fill:#E94E1B;}
</style>
<g
   transform="translate(-291.8,-209.60001)"
   id="g78">
	<defs
   id="defs5">
		<rect
   height="68.900002"
   width="248.39999"
   y="209.60001"
   x="291.79999"
   id="SVGID_1_" />
	</defs>
	<clipPath
   id="SVGID_2_">
		<use
   height="100%"
   width="100%"
   y="0"
   x="0"
   id="use7"
   style="overflow:visible"
   xlink:href="#SVGID_1_" />
	</clipPath>
	<path
   id="path10"
   clip-path="url(#SVGID_2_)"
   d="m 297,272.8 c 4,-14.5 8,-28.9 12,-43.4 h -5.4 c -4.1,-6.5 -8,-13.1 -11.8,-19.8 h 50.8 c -1.3,6.6 -2.5,13.2 -3.8,19.8 h -9.1 c -3.1,14.5 -6.3,28.9 -9.4,43.4 z"
   class="st0" />
	<path
   id="path12"
   clip-path="url(#SVGID_2_)"
   d="m 321.6,261.7 c 3.8,-17.4 7.7,-34.7 11.5,-52.1 h 37.2 c -1.9,17.4 -3.8,34.7 -5.7,52.1 z"
   class="st0" />
	<path
   id="path14"
   clip-path="url(#SVGID_2_)"
   d="m 363.6,261.7 c -3.3,-4.1 -4.9,-6.1 -8.1,-10.2 1.4,-10.6 2.9,-21.1 4.3,-31.7 3.9,-4.1 5.9,-6.1 9.6,-10.2 h 21.5 c 3.1,4.1 4.7,6.1 7.9,10.2 -0.3,10.6 -0.5,21.1 -0.8,31.7 -3.8,4.1 -5.7,6.1 -9.7,10.2 z"
   class="st0" />
	<path
   id="path16"
   clip-path="url(#SVGID_2_)"
   d="m 386.1,261.7 c 0.9,-15.9 1.7,-31.8 2.6,-47.8 0.9,-1.7 1.3,-2.6 2.2,-4.3 h 27.7 c 3.3,4 5,6 8.5,10 0.4,6.5 0.6,9.8 0.9,16.3 0.3,1.7 0.5,2.6 0.8,4.3 1.1,7.2 2.2,14.3 3.3,21.5 z"
   class="st0" />
	<path
   id="path18"
   clip-path="url(#SVGID_2_)"
   d="m 426.9,261.7 c -0.5,-10.8 -1.1,-21.5 -1.6,-32.3 h -9.1 c -0.2,-6.6 -0.3,-13.2 -0.5,-19.8 h 36.8 c 0.9,6.6 1.8,13.2 2.6,19.8 H 446 c 1.2,10.8 2.3,21.5 3.5,32.3 z"
   class="st0" />
	<path
   id="path20"
   clip-path="url(#SVGID_2_)"
   d="m 447.2,261.7 c -1.8,-17.4 -3.5,-34.7 -5.3,-52.1 h 19.6 c 1.7,10.8 3.4,21.5 5.2,32.3 h 13.4 c 1.3,6.6 2.6,13.2 3.9,19.8 z"
   class="st0" />
	<path
   id="path22"
   clip-path="url(#SVGID_2_)"
   d="M 469.8,261.7 C 467,244.3 464.3,227 461.5,209.6 h 33.4 c 1.4,5.3 2.1,8 3.4,13.3 0.6,2.5 1,3.8 1.6,6.3 h -1.3 c 1.3,5.2 2,7.8 3.3,13 h 1.6 c 1.7,6.5 3.4,13 5.1,19.5 z"
   class="st0" />
	<path
   id="path24"
   clip-path="url(#SVGID_2_)"
   d="m 471.6,272.8 c -1,-6.4 -2,-12.8 -3.1,-19.2 h 34.6 c -0.8,-3.3 -1.2,-4.9 -2,-8.2 v 0 c -4.1,-3.6 -6.1,-5.4 -10,-8.9 -1.6,-6.9 -2.4,-10.3 -3.9,-17.2 2.3,-3.9 3.4,-5.8 5.6,-9.7 H 535 c -3.2,6.5 -6.5,12.9 -10.1,19.2 h -1.7 c 2.8,2.2 4.3,3.4 7.1,5.6 3.2,9.6 6.5,19.1 9.7,28.7 -2.3,3.9 -3.5,5.8 -5.9,9.7 z"
   class="st0" />
	<path
   id="path26"
   clip-path="url(#SVGID_2_)"
   d="m 313.6,253.1 c 3.1,0 4.7,0 7.8,0 12.3,-0.1 24.7,-0.1 37,-0.2 2.8,0 4.3,0 7.1,0 -0.7,6.6 -1.4,13.2 -2,19.8 -18.2,0.1 -36.4,0.2 -54.5,0.3 1.4,-6.7 3,-13.3 4.6,-19.9"
   class="st0" />
	<path
   id="path28"
   clip-path="url(#SVGID_2_)"
   d="m 365,278.5 c -2.5,-2.3 -3.8,-3.5 -6.3,-5.8 0.8,-6.6 1.2,-9.9 2,-16.6 1.9,-1.5 2.9,-2.3 4.8,-3.9 H 383 c 1.6,1.5 2.5,2.3 4.1,3.9 -0.4,6.6 -0.5,9.9 -0.9,16.6 -2.9,2.3 -4.3,3.5 -7.3,5.8 z"
   class="st0" />
	<path
   id="path30"
   clip-path="url(#SVGID_2_)"
   d="m 378.7,278.5 c -1.8,-1.5 -2.6,-2.3 -4.3,-3.9 0.5,-6.2 1,-12.3 1.5,-18.5 1.9,-1.5 2.8,-2.3 4.7,-3.9 h 8.9 c 1.7,1.5 2.5,2.3 4.2,3.9 -0.1,2.9 -0.2,4.4 -0.3,7.3 h 1.7 c 1.7,1.6 2.6,2.4 4.3,4 -0.1,2.9 -0.1,4.3 -0.1,7.2 -1.9,1.5 -2.8,2.3 -4.7,3.9 z"
   class="st0" />
	<path
   id="path32"
   clip-path="url(#SVGID_2_)"
   d="m 392.1,278.5 c -1.9,-1.5 -2.8,-2.3 -4.6,-3.8 0.1,-3 0.2,-4.5 0.4,-7.5 -1.6,-1.5 -2.5,-2.3 -4.1,-3.9 0.2,-2.9 0.3,-4.3 0.4,-7.2 1.9,-1.5 2.8,-2.3 4.6,-3.9 H 406 c 1.7,1.5 2.6,2.3 4.4,3.9 0,2.9 0,4.3 0.1,7.2 -1.7,1.5 -2.6,2.3 -4.3,3.9 0,3 0,4.5 0,7.5 -1.9,1.5 -2.9,2.3 -4.8,3.8 z"
   class="st0" />
	<path
   id="path34"
   clip-path="url(#SVGID_2_)"
   d="m 401.4,278.5 c -1.8,-1.5 -2.7,-2.3 -4.5,-3.8 0.2,-6.2 0.3,-12.3 0.5,-18.5 1.8,-1.5 2.7,-2.3 4.4,-3.9 h 8.8 c 1.7,1.5 2.6,2.3 4.4,3.9 0.1,6.2 0.2,12.3 0.4,18.5 -1.8,1.5 -2.7,2.3 -4.6,3.8 z"
   class="st0" />
	<path
   id="path36"
   clip-path="url(#SVGID_2_)"
   d="m 417.1,278.5 h -9 c -1.9,-1.5 -2.8,-2.3 -4.6,-3.8 0.1,-6.2 0.1,-12.3 0.2,-18.5 1.8,-1.5 2.6,-2.3 4.4,-3.9 h 10.4 c 0.5,0.3 0.7,0.5 1.2,0.9 0.9,-0.5 2.1,-0.9 3.6,-0.9 h 8.1 c 0,0 0.1,0.1 0.1,0.1 h 4 c 0.6,7.8 1.2,15.5 1.8,23.3 -2.3,1.1 -3.4,1.7 -5.7,2.8 h -8.2"
   class="st0" />
	<path
   id="path38"
   clip-path="url(#SVGID_2_)"
   d="m 435.9,278.5 h -6.2 c -2.3,-1.8 -3.5,-2.8 -5.8,-4.6 1.8,-6.1 3.5,-12.3 5,-18.5 1.3,-1.2 2,-1.9 3.3,-3.1 h 7.7 c 4.5,0 6.7,3.2 7.7,5.2 0.3,0.6 0.7,1.6 1.2,2.8 1,2.3 2.5,5.7 4.4,10.3 0.6,1.4 0.9,2.1 1.5,3.5 -1.9,1.8 -2.9,2.7 -4.9,4.5 h -8.7"
   class="st0" />
	<path
   id="path40"
   clip-path="url(#SVGID_2_)"
   d="m 448,278.5 c -2.1,-1.5 -3.1,-2.3 -5.1,-3.8 -0.3,-3 -0.4,-4.5 -0.7,-7.5 -1.9,-1.5 -2.8,-2.3 -4.6,-3.9 -0.2,-2.9 -0.3,-4.3 -0.6,-7.2 1.6,-1.5 2.5,-2.3 4.1,-3.9 h 17.2 c 1.9,1.5 2.9,2.3 4.9,3.9 0.4,2.9 0.6,4.3 1,7.2 -1.5,1.5 -2.2,2.3 -3.8,3.9 0.4,3 0.6,4.5 1,7.5 -1.7,1.5 -2.5,2.3 -4.3,3.8 z"
   class="st0" />
	<path
   id="path42"
   clip-path="url(#SVGID_2_)"
   d="m 457.2,278.5 c -2.1,-1.5 -3.1,-2.3 -5.1,-3.9 -0.7,-6.2 -1.4,-12.3 -2.1,-18.5 1.6,-1.5 2.4,-2.3 3.9,-3.9 h 15.5 c 2,1.5 3,2.3 5,3.9 0.5,2.9 0.7,4.3 1.2,7.1 -0.2,0.2 -0.3,0.4 -0.5,0.6 0.2,1.2 0.3,1.8 0.5,2.9 0.3,0.3 0.5,0.4 0.9,0.7 0.5,2.9 0.8,4.3 1.3,7.2 -1.6,1.5 -2.4,2.3 -4,3.9 z"
   class="st0" />
	<path
   id="path44"
   clip-path="url(#SVGID_2_)"
   d="m 303.8,215.9 h 6.9 23.8 0.4 c -0.6,2.7 -0.8,4 -1.4,6.7 0,0.2 -0.1,0.3 -0.1,0.6 h -8.9 c -3.4,14.5 -6.8,28.9 -10.2,43.4 h -0.5 -7.2 -0.6 c 3.7,-14.5 7.4,-28.9 11.1,-43.4 h -8.9 c -1.7,-3 -2.6,-4.4 -4.4,-7.3"
   class="st1" />
	<path
   id="path46"
   clip-path="url(#SVGID_2_)"
   d="m 338.5,215.9 h 6.3 0.5 c -1.2,6.5 -1.8,9.8 -2.9,16.3 h 11.2 c 1,-6.5 1.5,-9.8 2.4,-16.3 h 0.5 6.3 0.4 c -1.7,13.2 -3.4,26.4 -5.1,39.5 h -0.5 -7.1 -0.5 c 0.9,-6.2 1.4,-9.3 2.3,-15.5 h -11.4 c -1.1,6.2 -1.7,9.3 -2.8,15.5 h -0.5 -7.1 -0.5 c 2.7,-13.2 5.3,-26.4 8,-39.5 z"
   class="st1" />
	<path
   id="path48"
   clip-path="url(#SVGID_2_)"
   d="m 373.3,225 c -0.7,7.2 -1.4,14.4 -2.1,21.6 0.7,0.9 1,1.3 1.7,2.1 h 7.9 c 0.9,-0.9 1.4,-1.3 2.3,-2.1 0.5,-7.2 0.9,-14.4 1.4,-21.6 -0.7,-0.9 -1,-1.3 -1.6,-2.1 h -7.6 c -0.8,0.8 -1.2,1.2 -2,2.1 m -1.5,-9.1 h 15.7 c 1.9,2.5 2.8,3.7 4.8,6.1 -0.4,9.1 -0.8,18.2 -1.2,27.2 -2.3,2.5 -3.5,3.7 -5.9,6.1 h -17.5 c -2,-2.5 -3,-3.7 -4.9,-6.1 1.1,-9.1 2.1,-18.2 3.2,-27.2 2.4,-2.4 3.5,-3.6 5.8,-6.1"
   class="st1" />
	<path
   id="path50"
   clip-path="url(#SVGID_2_)"
   d="m 402.3,222.3 c -0.1,4.6 -0.1,6.9 -0.2,11.5 h 9.6 c 0.7,-0.9 1.1,-1.3 1.8,-2.1 0,-2.9 -0.1,-4.3 -0.1,-7.2 -0.7,-0.9 -1.1,-1.3 -1.8,-2.1 h -9.3 z m 13.4,-6.4 c 2,2.4 3,3.5 5,5.9 0.2,4.8 0.3,7.2 0.5,12 -1.6,2 -2.4,3.1 -4,5.1 2,6.6 3.1,9.9 5.3,16.5 h -0.2 -8 c -1.9,-6.2 -2.7,-9.3 -4.5,-15.5 h -7.7 c -0.1,6.2 -0.1,9.3 -0.2,15.5 h -0.5 -7.1 -0.7 c 0.5,-13.1 0.9,-26.2 1.4,-39.3 0.1,-0.1 0.1,-0.2 0.2,-0.3 h 20.5 z"
   class="st1" />
	<path
   id="path52"
   clip-path="url(#SVGID_2_)"
   d="m 422.8,215.9 h 23.8 0.4 c 0.3,2.7 0.5,4 0.8,6.7 0,0.2 0,0.3 0.1,0.6 H 439 c 1,10.8 1.9,21.5 2.9,32.3 h -0.5 -7 -0.5 c -0.7,-10.8 -1.5,-21.5 -2.2,-32.3 h -8.9 c 0,-0.2 0,-0.3 0,-0.6 -0.1,-2.7 -0.2,-4 -0.3,-6.7 z"
   class="st1" />
	<path
   id="path54"
   clip-path="url(#SVGID_2_)"
   d="m 449.4,215.9 h 6.3 0.4 c 1.5,10.8 3,21.5 4.6,32.3 h 11.1 c 0,0.2 0.1,0.3 0.1,0.6 0.4,2.5 0.6,3.7 1,6.1 0,0.2 0.1,0.3 0.1,0.5 h -18.9 -0.5 C 452,242.2 450.4,229 448.8,215.9 Z"
   class="st1" />
	<path
   id="path56"
   clip-path="url(#SVGID_2_)"
   d="m 469.3,215.9 h 20.3 0.4 c 0.6,2.6 0.9,3.8 1.5,6.4 0.1,0.2 0.1,0.3 0.1,0.6 h -14.3 c 0.7,3.6 1.1,5.4 1.8,9.1 h 12.8 c 0.2,0 0.3,0 0.5,0 0.7,2.8 1,4.2 1.6,7 -0.2,0 -0.3,0 -0.5,0 h -13 c 0.8,3.8 1.1,5.8 1.9,9.6 h 15.5 c 0.1,0.2 0.1,0.3 0.1,0.6 0.6,2.4 0.8,3.5 1.4,5.9 0.1,0.2 0.1,0.3 0.1,0.5 h -23.4 -0.5 c -2.4,-13.2 -4.7,-26.4 -7.1,-39.5 h 0.8 z"
   class="st1" />
	<path
   id="path58"
   clip-path="url(#SVGID_2_)"
   d="m 519.8,222.5 h -16.6 c -0.4,0.6 -0.6,0.9 -1.1,1.5 0.7,2.6 1.1,4 1.8,6.6 0.6,0.4 0.8,0.6 1.4,1 H 518 c 2.5,2 3.8,3.1 6.4,5.1 2.6,8 5.1,16.1 7.7,24.1 -1.4,2.2 -2,3.4 -3.5,5.6 h -50.8 c -0.5,-2.7 -0.7,-4 -1.2,-6.6 h 45.5 c 0.4,-0.7 0.5,-1.1 0.9,-1.8 -1.8,-5.9 -3.5,-11.8 -5.3,-17.7 -0.6,-0.5 -0.9,-0.8 -1.5,-1.3 h -13.6 c -2.2,-1.9 -3.3,-2.9 -5.4,-4.8 -1.3,-5.1 -1.9,-7.7 -3.2,-12.8 1.3,-2.2 1.9,-3.4 3.2,-5.6 h 26.2 c -1.3,2.8 -2.1,4.1 -3.6,6.7"
   class="st1" />
	<path
   id="path60"
   clip-path="url(#SVGID_2_)"
   d="m 317.7,266.6 c 0,-0.2 0.1,-0.3 0.1,-0.6 0.6,-2.7 0.9,-4 1.5,-6.7 0.3,0 0.4,0 0.7,0 12.3,-0.1 24.6,-0.1 36.9,-0.2 0.3,0 0.4,0 0.7,0 -0.3,2.7 -0.5,4 -0.8,6.7 0,0.2 0,0.3 -0.1,0.6 -13,0 -26,0.1 -39,0.2"
   class="st1" />
	<path
   id="path62"
   clip-path="url(#SVGID_2_)"
   d="m 367.8,258.6 h 3.1 c 0.1,0.1 0.1,0.1 0.2,0.2 -0.4,4.1 -0.6,6.1 -1,10.2 0.3,0.3 0.5,0.5 0.9,0.8 h 3.4 c 0.4,-0.3 0.6,-0.5 1,-0.8 0.3,-4.1 0.5,-6.1 0.8,-10.2 0.1,-0.1 0.1,-0.1 0.2,-0.2 h 3.1 c 0.1,0.1 0.1,0.1 0.2,0.2 -0.3,4.5 -0.5,6.8 -0.8,11.4 -1.1,0.8 -1.6,1.3 -2.7,2.1 h -7.6 c -0.9,-0.8 -1.4,-1.3 -2.3,-2.1 0.5,-4.5 0.7,-6.8 1.2,-11.4 0.2,-0.1 0.2,-0.1 0.3,-0.2"
   class="st2" />
	<path
   id="path64"
   clip-path="url(#SVGID_2_)"
   d="m 383.1,258.6 h 3.1 c 0.1,0.1 0.1,0.1 0.2,0.2 -0.2,4.4 -0.4,6.6 -0.6,11 h 6 c 0.1,0.1 0.1,0.1 0.2,0.2 0,0.8 0,1.3 -0.1,2.1 -0.1,0.1 -0.1,0.1 -0.2,0.2 h -9.4 c -0.1,-0.1 -0.1,-0.1 -0.2,-0.2 0.3,-5.3 0.5,-8 0.8,-13.3 0.1,-0.1 0.1,-0.1 0.2,-0.2"
   class="st2" />
	<path
   id="path66"
   clip-path="url(#SVGID_2_)"
   d="m 390.7,258.6 h 11.5 c 0.1,0.1 0.1,0.1 0.2,0.2 0,0.8 0,1.3 0,2.1 -0.1,0.1 -0.1,0.1 -0.2,0.2 h -4 c -0.1,4.4 -0.2,6.6 -0.3,11 -0.1,0.1 -0.1,0.1 -0.2,0.2 h -3.2 c -0.1,-0.1 -0.1,-0.1 -0.2,-0.2 0.1,-4.4 0.2,-6.6 0.4,-11 h -4 c -0.1,-0.1 -0.1,-0.1 -0.2,-0.2 0,-0.8 0.1,-1.3 0.1,-2.1 -0.1,-0.1 0,-0.1 0.1,-0.2"
   class="st2" />
	<path
   id="path68"
   clip-path="url(#SVGID_2_)"
   d="m 404.7,258.6 h 3 c 0.1,0.1 0.1,0.1 0.2,0.2 0,5.3 0,8 0,13.3 -0.1,0.1 -0.1,0.1 -0.2,0.2 h -3.1 c -0.1,-0.1 -0.1,-0.1 -0.2,-0.2 0,-5.3 0.1,-8 0.1,-13.3 0,-0.1 0.1,-0.1 0.2,-0.2"
   class="st2" />
	<path
   id="path70"
   clip-path="url(#SVGID_2_)"
   d="m 411,258.6 h 5 c 0.2,0.1 1.5,3.7 4,10.7 0.2,0 0.9,-2.5 2.3,-7.4 0.7,-2.2 1.1,-3.3 1.2,-3.3 h 5 c 0,0 0.1,0.1 0.1,0.1 h 0.1 c 0.3,5.4 0.5,8 0.8,13.4 -0.1,0.1 -0.2,0.1 -0.3,0.2 h -3 c -0.1,-0.1 -0.1,-0.1 -0.2,-0.2 -0.2,-4.4 -0.3,-6.5 -0.5,-10.9 h -0.1 c -2,7.4 -3.3,11.1 -3.5,11.1 h -3.8 c -0.2,0 -1.7,-3.7 -4.2,-11.2 h -0.1 c 0.1,4.4 0.1,6.6 0.2,11 -0.1,0.1 -0.1,0.1 -0.2,0.2 h -2.7 c -0.1,-0.1 -0.1,-0.1 -0.2,-0.2 0,-5.3 -0.1,-8 -0.1,-13.3 0.1,-0.1 0.1,-0.1 0.2,-0.2"
   class="st2" />
	<path
   id="path72"
   clip-path="url(#SVGID_2_)"
   d="m 438.2,260.6 c -0.5,2.5 -0.8,3.8 -1.3,6.3 h 3.8 c -0.9,-2.5 -1.4,-3.8 -2.3,-6.3 z m 2.4,-2 c 0.2,0 2,4.5 5.8,13.6 0,0 -0.1,0.1 -0.1,0.1 h -3.4 c -0.2,-0.1 -0.7,-1.1 -1.4,-3 h -5.2 c -0.3,2 -0.6,3 -0.8,3 h -3.1 c -0.1,-0.1 -0.1,-0.1 -0.2,-0.2 1.4,-5.3 2.1,-8 3.4,-13.4 0,0 0.1,-0.1 0.1,-0.1 z"
   class="st2" />
	<path
   id="path74"
   clip-path="url(#SVGID_2_)"
   d="m 444.6,258.6 h 11.5 c 0.1,0.1 0.1,0.1 0.2,0.2 0.1,0.8 0.2,1.3 0.3,2.1 -0.1,0.1 -0.1,0.1 -0.2,0.2 h -4 c 0.5,4.4 0.8,6.6 1.3,11 -0.1,0.1 -0.1,0.1 -0.2,0.2 h -3.2 c -0.1,-0.1 -0.1,-0.1 -0.2,-0.2 -0.5,-4.4 -0.7,-6.6 -1.2,-11 h -4 c -0.1,-0.1 -0.1,-0.1 -0.2,-0.2 -0.1,-0.8 -0.1,-1.3 -0.2,-2.1 0,-0.1 0.1,-0.1 0.1,-0.2"
   class="st2" />
	<path
   id="path76"
   clip-path="url(#SVGID_2_)"
   d="m 458.6,258.6 h 9.8 c 0.1,0.1 0.1,0.1 0.2,0.2 0.1,0.8 0.2,1.2 0.3,2 -0.1,0.1 -0.1,0.1 -0.2,0.2 h -6.6 c 0.2,1.3 0.3,1.9 0.4,3.1 h 6 c 0.1,0.1 0.1,0.1 0.2,0.2 0.1,0.8 0.2,1.2 0.3,2 -0.1,0.1 -0.1,0.1 -0.2,0.2 h -6 c 0.2,1.3 0.3,2 0.5,3.3 h 6.8 c 0.1,0.1 0.1,0.1 0.2,0.2 0.1,0.8 0.2,1.2 0.3,2 -0.1,0.1 -0.1,0.1 -0.2,0.2 h -10.3 c -0.1,-0.1 -0.1,-0.1 -0.2,-0.2 -0.7,-5.3 -1,-8 -1.7,-13.3 0.3,0 0.3,0 0.4,-0.1"
   class="st2" />
</g>
</svg>
