<?xml version="1.0" encoding="UTF-8" standalone="no"?>
<svg
   xmlns:dc="http://purl.org/dc/elements/1.1/"
   xmlns:cc="http://creativecommons.org/ns#"
   xmlns:rdf="http://www.w3.org/1999/02/22-rdf-syntax-ns#"
   xmlns:svg="http://www.w3.org/2000/svg"
   xmlns="http://www.w3.org/2000/svg"
   xmlns:sodipodi="http://sodipodi.sourceforge.net/DTD/sodipodi-0.dtd"
   xmlns:inkscape="http://www.inkscape.org/namespaces/inkscape"
   inkscape:version="1.0 (6e3e5246a0, 2020-05-07)"
   height="171.10001"
   width="152.39999"
   sodipodi:docname="thortle_logo.svg"
   xml:space="preserve"
   viewBox="0 0 152.39999 171.10001"
   y="0px"
   x="0px"
   id="Calque_1"
   version="1.1"><metadata
   id="metadata65"><rdf:RDF><cc:Work
       rdf:about=""><dc:format>image/svg+xml</dc:format><dc:type
         rdf:resource="http://purl.org/dc/dcmitype/StillImage" /></cc:Work></rdf:RDF></metadata><defs
   id="defs63" /><sodipodi:namedview
   inkscape:current-layer="Calque_1"
   inkscape:window-maximized="0"
   inkscape:window-y="27"
   inkscape:window-x="52"
   inkscape:cy="144.26954"
   inkscape:cx="79.950012"
   inkscape:zoom="1.461448"
   showgrid="false"
   id="namedview61"
   inkscape:window-height="769"
   inkscape:window-width="1051"
   inkscape:pageshadow="2"
   inkscape:pageopacity="0"
   guidetolerance="10"
   gridtolerance="10"
   objecttolerance="10"
   borderopacity="1"
   bordercolor="#666666"
   pagecolor="#ffffff" />
<style
   id="style2"
   type="text/css">
	.st0{clip-path:url(#SVGID_2_);}
	.st1{clip-path:url(#SVGID_2_);fill:#FFFFFF;}
	.st2{clip-path:url(#SVGID_2_);fill:#E94E1B;}
	.st3{fill:#C3C47E;}
	.st4{fill:#A7A86D;}
	.st5{fill:#FFFFFF;}
	.st6{fill:#EC6730;}
	.st7{fill:#E94E1B;}
	.st8{fill:#8D3208;}
	.st9{clip-path:url(#SVGID_4_);}
	.st10{clip-path:url(#SVGID_4_);fill:#FFFFFF;}
	.st11{clip-path:url(#SVGID_4_);fill:#E94E1B;}
</style>
<g
   transform="translate(-341,-43.9)"
   id="g58">
	<g
   id="g34">
		<path
   id="path4"
   d="m 370.9,96.2 -8.5,2.7 2.3,-4.2 -9.4,-3.1 11.6,0.6 -1.2,-6.6 6.9,-11.7 -0.3,-2.9 -4.9,3.1 0.3,-3.2 -0.8,-2.4 -2.4,0.7 -2.7,2 v -2.7 l -1.4,-1.6 -7.1,8.9 -7,11.9 v 10.8 l 9.5,14.6 11.1,6.6 c 1.3,-8.1 4.6,-15.5 9.3,-21.8 z"
   class="st3" />
		<polygon
   id="polygon6"
   points="364.2,170.2 368.3,189.7 378.7,200.9 369.1,200.9 366.9,202.3 368.1,204.7 364.8,203.4 361.6,204.7 367.7,209.2 386.6,209.2 395.1,198.1 395.7,188.6 388.5,176.5 384.7,167.6 372.2,155.4 "
   class="st3" />
		<path
   id="path8"
   d="m 413.2,177.8 3.1,6.9 2.4,-6.9 c -0.8,0 -1.6,0.1 -2.4,0.1 -1,0 -2.1,-0.1 -3.1,-0.1 z"
   class="st4" />
		<polygon
   id="polygon10"
   points="403.4,58.5 401.9,55.9 398.8,55.6 393.1,59.3 396.4,57.8 399.4,57.6 400.2,59.3 "
   class="st5" />
		<polygon
   id="polygon12"
   points="394.1,68.7 389.3,67.8 388.6,71.3 395.2,71.8 400.5,68.4 400.2,67.2 "
   class="st5" />
		<polygon
   id="polygon14"
   points="459,76.3 457,72.9 454.1,74.7 454,78.3 "
   class="st4" />
		<path
   id="path16"
   d="m 394.4,66.8 6.5,-2.4 4.6,5.1 -8.7,5.1 -1.6,1.7 1.8,5.4 c 6,-2.5 12.5,-3.9 19.4,-3.9 1.2,0 2.4,0 3.6,0.1 l -0.5,-8.2 4.8,8.7 c 5,0.8 9.7,2.3 14.1,4.5 h 0.2 l -8.7,-23.6 -19.1,-10.7 -12.9,2.4 -8.7,5 -4.9,9.8 1.4,4.6 1,-2.8 V 65 l 2.3,0.9 z m -3.1,-8.9 7,-4.1 12.6,-0.9 -6.6,3.6 3.8,2.7 -6.4,2.7 -7.6,0.6 -2.5,-1.2 -3.6,1.2 z"
   class="st3" />
		<polygon
   id="polygon18"
   points="372.7,79.3 378,80.6 377.3,77 374.1,75.7 "
   class="st4" />
		<path
   id="path20"
   d="m 458,155.5 c -3.3,4.9 -7.4,9.2 -12.1,12.7 l -6,6.9 -1.2,6.8 -2.8,14.4 9.5,11.1 17.5,1 5.9,-2.7 v -4.2 l -3,0.3 1.7,-1.3 -3.3,-2.2 -9,4.2 2.6,-4 1.8,-2.8 4.6,-7.1 3.3,-15.2 -4.1,-14.3 z"
   class="st3" />
		<path
   id="path22"
   d="m 477.6,69.7 -8.4,-7.7 -1.2,1.8 0.4,2.6 -2.9,-1.6 -2.5,-0.3 -0.4,2.5 0.8,3.1 -5.3,-2.3 0.1,2.9 8.7,11.5 -0.3,5.7 11.4,-2.4 -8.8,4.5 3,3.8 -8.8,-1.3 -6.9,2.4 -1.9,0.6 c 1,1.2 2,2.5 2.9,3.8 3.8,5.6 6.6,12 7.9,18.8 l 15.5,-10.2 7.4,-16.7 -2,-11 z"
   class="st3" />
		<path
   id="path24"
   d="m 439.7,104.5 c -2.9,-3.3 -6.4,-6.1 -10.4,-8 -4,-1.9 -8.5,-2.9 -13,-2.9 -4.5,0 -9,1 -13,3 -4,1.9 -7.5,4.7 -10.4,8 -1.4,1.6 -2.7,3.4 -3.8,5.2 -0.3,0.5 -0.5,0.9 -0.8,1.4 -0.2,0.5 -0.5,0.9 -0.7,1.4 -0.2,0.5 -0.5,1 -0.7,1.4 -0.2,0.5 -0.4,1 -0.6,1.5 -1.5,4 -2.3,8.2 -2.2,12.4 0,4.2 0.9,8.4 2.4,12.3 1.6,3.9 3.9,7.5 6.8,10.6 2.9,3.1 6.5,5.5 10.4,7.3 3.9,1.8 8.2,2.9 12.5,3.1 4.4,0.2 8.8,-0.5 12.9,-2.1 4.1,-1.6 7.9,-4.1 11,-7.3 1.5,-1.6 2.9,-3.4 4,-5.2 1.1,-1.9 2.1,-3.9 2.8,-5.9 1.5,-4.1 2.1,-8.5 1.9,-12.7 -0.1,-8.6 -3.4,-16.9 -9.1,-23.5 z"
   class="st6" />
		<path
   id="path26"
   d="m 459.9,127.8 c 0,-3.7 -0.5,-7.3 -1.3,-10.7 -2.2,-8.9 -7.2,-16.6 -13.9,-22.4 -7.6,-6.6 -17.6,-10.5 -28.4,-10.5 -24.1,0 -43.6,19.5 -43.6,43.6 0,24.1 19.5,43.6 43.6,43.6 24.1,0.1 43.6,-19.5 43.6,-43.6 z m -18.7,25.1 c -3.3,3.2 -7.2,5.8 -11.4,7.7 -4.2,1.8 -8.8,2.9 -13.5,3.1 -4.7,0.2 -9.4,-0.5 -13.9,-2.2 -4.5,-1.7 -8.6,-4.3 -12,-7.7 -3.5,-3.3 -6.2,-7.4 -8.1,-11.8 -1.9,-4.4 -2.9,-9.3 -2.9,-14.1 0,-4.8 1.1,-9.6 3,-14 0.5,-1.1 1,-2.2 1.6,-3.2 0.3,-0.5 0.6,-1 1,-1.5 0.3,-0.5 0.7,-1 1,-1.5 1.4,-1.9 3,-3.7 4.8,-5.2 3.5,-3.1 7.7,-5.5 12,-7 4.3,-1.5 8.9,-2.3 13.4,-2.3 4.5,0 9.1,0.8 13.4,2.3 4.3,1.6 8.5,3.9 12,7 3.5,3.1 6.4,7 8.3,11.4 1.9,4.4 2.8,9.2 2.7,14 -0.1,2.4 -0.4,4.7 -1,7 -0.6,2.3 -1.4,4.5 -2.4,6.6 -1,2.1 -2.2,4.1 -3.6,6 -1.2,2 -2.7,3.8 -4.4,5.4 z"
   class="st7" />
		<path
   id="path28"
   d="m 394.1,62.6 7.6,-0.6 6.4,-2.7 -3.8,-2.7 6.6,-3.6 -12.6,0.9 -7,4.1 -3.3,4.7 3.6,-1.2 z m 4.7,-7 3.1,0.3 1.5,2.6 -3.3,0.8 -0.7,-1.7 -3,0.2 -3.3,1.5 z" />
		<path
   id="path30"
   d="m 480.2,64.9 -13.8,-9.6 -1.8,5.9 -6.3,-1.9 0.7,4.9 -8.6,-1.3 3.8,7.2 -3.3,1.3 -2.4,13.2 11.2,-3.4 2.3,3 -0.9,2.9 -9.6,1.5 L 447.6,87 433.8,56.5 412,43.9 l -12.3,1.6 -13.6,7.7 -5.8,14 3.4,9.4 2.9,-2.1 1.4,0.7 3.1,2.8 1.3,5.8 c -2.2,1.2 -4.3,2.6 -6.3,4.1 l -4.3,2.6 h -9.7 l -1.3,-2.8 1.8,-3.3 11.6,1.6 -4.4,-12.6 -3.5,-0.8 2.6,-7.7 -8.3,2.6 -0.1,-5 -5.9,2.9 -2.7,-5.6 -11.9,11.6 -8.5,13.8 -0.5,13.8 6.5,12.8 6.1,9.2 12.6,7.8 c 0.1,3 0.4,5.9 0.9,8.7 l 0.6,7.9 -8.8,24.9 5.4,21.4 3.9,3.9 -2.7,3.6 -3.2,0.8 -8.5,9.9 15.2,4.2 15.3,0.9 10.1,-1.7 6.5,-14.4 0.5,-10.8 -3.2,-9.4 3.7,-2.9 c 1.8,0.5 3.6,1 5.4,1.3 l 8.9,16.6 8.6,-16.5 c 1,-0.2 1.9,-0.4 2.9,-0.6 l 5.8,6.4 -2.7,13.5 7.5,15.9 25.2,0.6 17.4,-2.9 -6.7,-10.5 -4.4,-1.6 -1.5,-6 4.6,-19 -3.4,-16.9 -6.1,-8.6 1.3,-7.2 c 0.6,-2.3 1,-4.7 1.3,-7.1 l 0.2,-1.1 h -0.1 c 0.1,-1 0.1,-2.1 0.2,-3.1 l 5.8,-4 12.2,-10.4 4.6,-9.8 4.5,-13.8 -2.6,-13.7 z m -26.2,13.4 0.1,-3.6 3,-1.8 2,3.4 z M 386.8,64.9 v 2.6 l -1,2.8 -1.4,-4.6 4.9,-9.8 8.7,-5 12.8,-2.4 19.1,10.7 8.7,23.6 h -0.2 c -4.4,-2.2 -9.1,-3.7 -14.1,-4.5 l -4.8,-8.7 0.5,8.2 c -1.2,-0.1 -2.4,-0.1 -3.6,-0.1 -6.9,0 -13.4,1.4 -19.4,3.9 l -1.8,-5.4 1.6,-1.7 8.7,-5.1 -4.6,-5.1 -6.5,2.4 -5.2,-1 z m 1.8,6.4 0.7,-3.4 4.8,0.9 6.1,-1.5 0.4,1.2 -5.3,3.4 z m -14.5,4.4 3.2,1.3 0.7,3.5 -5.3,-1.2 z m -7.2,43.8 -11.1,-6.6 -9.5,-14.6 V 87.5 l 7,-11.9 7.1,-8.9 1.4,1.6 V 71 l 2.7,-2 2.4,-0.7 0.8,2.4 -0.3,3.2 4.9,-3.1 0.3,2.9 -6.9,11.7 1.2,6.6 -11.6,-0.6 9.4,3.1 -2.3,4.2 8.5,-2.7 5.4,1.6 c -4.7,6.4 -8,13.8 -9.4,21.9 z m 28.2,78.6 -8.6,11.1 h -18.9 l -6,-1.9 3.1,-3.9 3.3,1.3 -1.2,-2.5 2.2,-1.4 h 9.6 l -10.5,-11.2 -4.1,-19.4 8,-14.8 12.5,12.2 3.8,8.9 7.2,12.1 z m 21.2,-13.4 -3.1,-6.9 c 1,0.1 2,0.1 3.1,0.1 0.8,0 1.6,0 2.4,-0.1 z m 0,-13.2 c -24.1,0 -43.6,-19.5 -43.6,-43.6 0,-24.1 19.5,-43.6 43.6,-43.6 10.9,0 20.8,4 28.4,10.5 6.7,5.8 11.7,13.5 13.9,22.4 0.9,3.4 1.3,7 1.3,10.7 0,24 -19.5,43.6 -43.6,43.6 z m 51.2,1.6 -3.3,15.2 -4.6,7.1 -1.8,2.8 -2.6,4 9,-4.2 3.3,2.2 -1.7,1.3 3,-0.3 v 4.2 l -5.9,2.7 -17.5,-1 -9.5,-11.1 2.8,-14.4 1.2,-6.8 6,-6.9 c 4.7,-3.5 8.9,-7.8 12.1,-12.7 l 5.4,3.4 z m 13.5,-65 -15.5,10.2 c -1.3,-6.9 -4.1,-13.3 -7.9,-18.8 -0.9,-1.3 -1.8,-2.5 -2.9,-3.8 l 1.9,-0.6 6.9,-2.4 8.8,1.3 -3,-3.8 8.8,-4.5 -11.4,2.3 0.3,-5.7 -8.7,-11.5 -0.1,-2.9 5.3,2.3 -0.8,-3.1 0.4,-2.5 2.5,0.3 2.9,1.6 -0.4,-2.6 1.2,-1.8 8.4,7.7 8.7,10.6 2,11 z" />
		<path
   id="path32"
   d="m 451.7,135 c 0.6,-2.3 0.9,-4.7 1,-7 0.1,-4.8 -0.8,-9.6 -2.7,-14 -1.9,-4.4 -4.8,-8.3 -8.3,-11.4 -3.5,-3.1 -7.7,-5.5 -12,-7 -4.3,-1.5 -8.9,-2.3 -13.4,-2.3 -4.5,0 -9.1,0.8 -13.4,2.3 -4.3,1.6 -8.5,3.9 -12,7 -1.8,1.6 -3.4,3.3 -4.8,5.2 -0.3,0.5 -0.7,1 -1,1.5 -0.3,0.5 -0.7,1 -1,1.5 -0.6,1 -1.2,2.1 -1.6,3.2 -2,4.4 -3,9.2 -3,14 0,4.8 0.9,9.7 2.9,14.1 1.9,4.4 4.7,8.5 8.1,11.8 3.4,3.3 7.5,6 12,7.7 4.4,1.7 9.2,2.4 13.9,2.2 4.7,-0.2 9.3,-1.3 13.5,-3.1 4.2,-1.8 8.1,-4.5 11.4,-7.7 1.7,-1.6 3.2,-3.3 4.5,-5.2 1.4,-1.9 2.6,-3.9 3.6,-6 0.9,-2.3 1.7,-4.5 2.3,-6.8 z m -4.6,5.7 c -0.7,2.1 -1.7,4 -2.8,5.9 -1.2,1.9 -2.5,3.6 -4,5.2 -3.1,3.2 -6.9,5.7 -11,7.3 -4.1,1.6 -8.6,2.3 -12.9,2.1 -4.4,-0.2 -8.6,-1.3 -12.5,-3.1 -3.9,-1.8 -7.5,-4.3 -10.4,-7.3 -2.9,-3.1 -5.3,-6.7 -6.8,-10.6 -1.5,-3.9 -2.4,-8.1 -2.4,-12.3 0,-4.2 0.7,-8.4 2.2,-12.4 0.2,-0.5 0.4,-1 0.6,-1.5 0.2,-0.5 0.4,-1 0.7,-1.4 0.2,-0.5 0.5,-1 0.7,-1.4 0.3,-0.5 0.5,-0.9 0.8,-1.4 1.1,-1.8 2.4,-3.6 3.8,-5.2 2.8,-3.3 6.4,-6.1 10.4,-8 4,-1.9 8.5,-2.9 13,-3 4.5,0 9,1 13,2.9 4,1.9 7.6,4.7 10.4,8 5.7,6.6 9,14.9 9.3,23.4 -0.1,4.3 -0.7,8.7 -2.1,12.8 z" />
	</g>
	<path
   id="path36"
   d="m 465.4,118.3 15.5,-10.2 7.4,-16.7 -10.1,13.5 -11.3,1.3 -12.3,-10.4 c 0,-0.1 7.1,6.6 10.8,22.5 z"
   class="st4" />
	<path
   id="path38"
   d="m 376.3,97.8 -13.1,10.5 -5.9,-2 -11,-7.9 9.5,14.6 11.1,6.6 c 0,-0.1 1.6,-11.8 9.4,-21.8 z"
   class="st4" />
	<path
   id="path40"
   d="m 445.9,168.2 c 6.4,-4.4 12.1,-12.7 12.1,-12.7 l -2.7,23.5 -11.8,17.3 1.9,11 -9.5,-11.1 4,-21.2 z"
   class="st4" />
	<polygon
   id="polygon42"
   points="473.5,206.8 463,208.3 445.5,207.3 462.6,205.3 465.8,201.6 468.8,201.3 "
   class="st4" />
	<polygon
   id="polygon44"
   points="386.6,209.2 369.8,207 368.1,204.7 364.8,203.4 361.6,207.3 367.7,209.2 "
   class="st4" />
	<polygon
   id="polygon46"
   points="376,179.2 372.2,155.4 384.7,167.6 388.5,176.5 395.7,188.6 395.1,198.1 389.4,188 "
   class="st4" />
	<path
   id="path48"
   d="m 424.2,78.4 -4.8,-8.7 v -9.3 l -8.6,-11.8 19.1,10.7 8.7,23.6 c -0.1,0 -6.4,-3.2 -14.4,-4.5 z"
   class="st4" />
	<polygon
   id="polygon50"
   points="396.9,81.7 395.2,76.2 396.7,74.6 405.4,69.5 398.3,76.5 "
   class="st4" />
	<g
   id="g54">
		<path
   id="path52"
   d="m 432.7,110.9 -0.1,0.5 -1.1,5.5 -0.1,0.5 h -10 l -5.8,28.9 h -0.5 -7.3 -0.5 l 5.8,-28.9 h -10 l 0.1,-0.5 1.1,-5.5 0.1,-0.5 h 28.3 m 6.7,-5.6 h -6.8 -28.3 -4.5 l -0.9,4.5 -0.1,0.5 -1.1,5.5 -0.1,0.5 -1.3,6.6 h 6.8 3.3 l -4.5,22.3 -1.3,6.6 h 6.8 0.5 7.3 0.5 4.5 l 0.9,-4.5 4.9,-24.5 h 5.5 4.5 l 0.9,-4.5 0.1,-0.5 1.1,-5.5 0.1,-0.5 z"
   class="st7" />
	</g>
	<polygon
   id="polygon56"
   points="415.6,146.3 421.3,117.4 431.4,117.4 432.7,110.9 439.4,105.3 435.9,122.9 425.9,122.9 420.1,151.8 400.5,151.8 407.3,146.3 "
   class="st8" />
</g>
</svg>
